<?xml version="1.0" encoding="UTF-8" standalone="no"?>
<!DOCTYPE svg PUBLIC "-//W3C//DTD SVG 1.1//EN"
 "http://www.w3.org/Graphics/SVG/1.1/DTD/svg11.dtd">
<!-- Generated by graphviz version 2.50.0 (20211204.2007)
 -->
<!-- Title: GrammarLR1::printAST Pages: 1 -->
<svg width="473pt" height="96pt"
 viewBox="0.00 0.00 473.00 95.50" xmlns="http://www.w3.org/2000/svg" xmlns:xlink="http://www.w3.org/1999/xlink">
<g id="graph0" class="graph" transform="scale(1 1) rotate(0) translate(4 91.5)">
<title>GrammarLR1::printAST</title>
<!-- Node1 -->
<g id="node1" class="node">
<title>Node1</title>
<g id="a_node1"><a xlink:title=" ">
<polygon fill="#bfbfbf" stroke="black" points="0,-31.5 0,-50.5 119,-50.5 119,-31.5 0,-31.5"/>
<text text-anchor="middle" x="59.5" y="-38.5" font-family="Helvetica,sans-Serif" font-size="10.00">GrammarLR1::printAST</text>
</a>
</g>
</g>
<!-- Node2 -->
<g id="node2" class="node">
<title>Node2</title>
<g id="a_node2"><a xlink:href="class_grammar_l_r1.html#ac629f282c577ab96b7b4a915869c26c6" target="_top" xlink:title=" ">
<polygon fill="none" stroke="black" points="155,-57 155,-87 297,-87 297,-57 155,-57"/>
<text text-anchor="start" x="163" y="-75" font-family="Helvetica,sans-Serif" font-size="10.00">GrammarLR1::buildGrammar</text>
<text text-anchor="middle" x="226" y="-64" font-family="Helvetica,sans-Serif" font-size="10.00">AnalysisTree</text>
</a>
</g>
</g>
<!-- Node1&#45;&gt;Node2 -->
<g id="edge1" class="edge">
<title>Node1&#45;&gt;Node2</title>
<path fill="none" stroke="midnightblue" d="M111.2,-50.55C121.86,-52.56 133.35,-54.73 144.79,-56.88"/>
<polygon fill="midnightblue" stroke="midnightblue" points="144.34,-60.36 154.81,-58.77 145.63,-53.48 144.34,-60.36"/>
</g>
<!-- Node4 -->
<g id="node4" class="node">
<title>Node4</title>
<g id="a_node4"><a xlink:href="class_grammar_l_r1.html#afced99843bde68d497e7e541402a2662" target="_top" xlink:title=" ">
<polygon fill="none" stroke="black" points="175.5,-0.5 175.5,-19.5 276.5,-19.5 276.5,-0.5 175.5,-0.5"/>
<text text-anchor="middle" x="226" y="-7.5" font-family="Helvetica,sans-Serif" font-size="10.00">GrammarLR1::DFS</text>
</a>
</g>
</g>
<!-- Node1&#45;&gt;Node4 -->
<g id="edge3" class="edge">
<title>Node1&#45;&gt;Node4</title>
<path fill="none" stroke="midnightblue" d="M111.2,-31.45C128.24,-28.23 147.42,-24.62 165.1,-21.29"/>
<polygon fill="midnightblue" stroke="midnightblue" points="166.14,-24.65 175.32,-19.36 164.84,-17.78 166.14,-24.65"/>
</g>
<!-- Node3 -->
<g id="node3" class="node">
<title>Node3</title>
<g id="a_node3"><a xlink:href="class_grammar.html#a2c8d1fdf2eef2d7ccd987fd9d3a8445f" target="_top" xlink:title=" ">
<polygon fill="none" stroke="black" points="333,-62.5 333,-81.5 465,-81.5 465,-62.5 333,-62.5"/>
<text text-anchor="middle" x="399" y="-69.5" font-family="Helvetica,sans-Serif" font-size="10.00">Grammar::findRulesScope</text>
</a>
</g>
</g>
<!-- Node2&#45;&gt;Node3 -->
<g id="edge2" class="edge">
<title>Node2&#45;&gt;Node3</title>
<path fill="none" stroke="midnightblue" d="M297.05,-72C305.44,-72 314.04,-72 322.5,-72"/>
<polygon fill="midnightblue" stroke="midnightblue" points="322.74,-75.5 332.74,-72 322.74,-68.5 322.74,-75.5"/>
</g>
<!-- Node4&#45;&gt;Node4 -->
<g id="edge4" class="edge">
<title>Node4&#45;&gt;Node4</title>
<path fill="none" stroke="midnightblue" d="M200.41,-19.76C187.97,-28.57 196.5,-38 226,-38 245.82,-38 256.18,-33.74 257.06,-28.27"/>
<polygon fill="midnightblue" stroke="midnightblue" points="259.94,-26.27 251.59,-19.76 254.05,-30.06 259.94,-26.27"/>
</g>
</g>
</svg>
