<?xml version="1.0" encoding="UTF-8" standalone="no"?>
<!DOCTYPE svg PUBLIC "-//W3C//DTD SVG 1.1//EN"
 "http://www.w3.org/Graphics/SVG/1.1/DTD/svg11.dtd">
<!-- Generated by graphviz version 2.50.0 (20211204.2007)
 -->
<!-- Title: GrammarLR1::makeItemsSetFamily Pages: 1 -->
<svg width="647pt" height="104pt"
 viewBox="0.00 0.00 647.00 104.00" xmlns="http://www.w3.org/2000/svg" xmlns:xlink="http://www.w3.org/1999/xlink">
<g id="graph0" class="graph" transform="scale(1 1) rotate(0) translate(4 100)">
<title>GrammarLR1::makeItemsSetFamily</title>
<!-- Node1 -->
<g id="node1" class="node">
<title>Node1</title>
<g id="a_node1"><a xlink:title=" ">
<polygon fill="#bfbfbf" stroke="black" points="0,-14 0,-44 145,-44 145,-14 0,-14"/>
<text text-anchor="start" x="8" y="-32" font-family="Helvetica,sans-Serif" font-size="10.00">GrammarLR1::makeItemsSet</text>
<text text-anchor="middle" x="72.5" y="-21" font-family="Helvetica,sans-Serif" font-size="10.00">Family</text>
</a>
</g>
</g>
<!-- Node2 -->
<g id="node2" class="node">
<title>Node2</title>
<g id="a_node2"><a xlink:href="class_items_set.html#a28298256962b2f6ebb51eb0f1cf56cfc" target="_top" xlink:title="闭包">
<polygon fill="none" stroke="black" points="205.5,-38.5 205.5,-57.5 299.5,-57.5 299.5,-38.5 205.5,-38.5"/>
<text text-anchor="middle" x="252.5" y="-45.5" font-family="Helvetica,sans-Serif" font-size="10.00">ItemsSet::closure</text>
</a>
</g>
</g>
<!-- Node1&#45;&gt;Node2 -->
<g id="edge1" class="edge">
<title>Node1&#45;&gt;Node2</title>
<path fill="none" stroke="midnightblue" d="M145.13,-36.65C161.77,-38.42 179.26,-40.29 195.13,-41.98"/>
<polygon fill="midnightblue" stroke="midnightblue" points="194.99,-45.49 205.31,-43.07 195.74,-38.53 194.99,-45.49"/>
</g>
<!-- Node7 -->
<g id="node7" class="node">
<title>Node7</title>
<g id="a_node7"><a xlink:href="class_items_set.html#ac4e3adeccfb8939c9416f6c1882de235" target="_top" xlink:title=" ">
<polygon fill="none" stroke="black" points="181,-0.5 181,-19.5 324,-19.5 324,-0.5 181,-0.5"/>
<text text-anchor="middle" x="252.5" y="-7.5" font-family="Helvetica,sans-Serif" font-size="10.00">ItemsSet::isAllToBeReduced</text>
</a>
</g>
</g>
<!-- Node1&#45;&gt;Node7 -->
<g id="edge6" class="edge">
<title>Node1&#45;&gt;Node7</title>
<path fill="none" stroke="midnightblue" d="M145.13,-21.35C153.6,-20.45 162.29,-19.52 170.88,-18.61"/>
<polygon fill="midnightblue" stroke="midnightblue" points="171.31,-22.08 180.89,-17.54 170.57,-15.12 171.31,-22.08"/>
</g>
<!-- Node3 -->
<g id="node3" class="node">
<title>Node3</title>
<g id="a_node3"><a xlink:href="class_grammar.html#a2c8d1fdf2eef2d7ccd987fd9d3a8445f" target="_top" xlink:title=" ">
<polygon fill="none" stroke="black" points="360,-76.5 360,-95.5 492,-95.5 492,-76.5 360,-76.5"/>
<text text-anchor="middle" x="426" y="-83.5" font-family="Helvetica,sans-Serif" font-size="10.00">Grammar::findRulesScope</text>
</a>
</g>
</g>
<!-- Node2&#45;&gt;Node3 -->
<g id="edge2" class="edge">
<title>Node2&#45;&gt;Node3</title>
<path fill="none" stroke="midnightblue" d="M296.78,-57.59C319.61,-62.65 347.82,-68.9 371.96,-74.25"/>
<polygon fill="midnightblue" stroke="midnightblue" points="371.51,-77.73 382.03,-76.48 373.03,-70.9 371.51,-77.73"/>
</g>
<!-- Node4 -->
<g id="node4" class="node">
<title>Node4</title>
<g id="a_node4"><a xlink:href="class_items_set.html#ac722f837ced519f0d28ad9bcdad8c067" target="_top" xlink:title=" ">
<polygon fill="none" stroke="black" points="378.5,-38.5 378.5,-57.5 473.5,-57.5 473.5,-38.5 378.5,-38.5"/>
<text text-anchor="middle" x="426" y="-45.5" font-family="Helvetica,sans-Serif" font-size="10.00">ItemsSet::getFirst</text>
</a>
</g>
</g>
<!-- Node2&#45;&gt;Node4 -->
<g id="edge3" class="edge">
<title>Node2&#45;&gt;Node4</title>
<path fill="none" stroke="midnightblue" d="M299.91,-48C320.89,-48 345.88,-48 367.99,-48"/>
<polygon fill="midnightblue" stroke="midnightblue" points="368.25,-51.5 378.25,-48 368.25,-44.5 368.25,-51.5"/>
</g>
<!-- Node6 -->
<g id="node6" class="node">
<title>Node6</title>
<g id="a_node6"><a xlink:href="class_grammar.html#ae41d5ebe716d6a3f199881e8cdb2f4e9" target="_top" xlink:title=" ">
<polygon fill="none" stroke="black" points="364.5,-0.5 364.5,-19.5 487.5,-19.5 487.5,-0.5 364.5,-0.5"/>
<text text-anchor="middle" x="426" y="-7.5" font-family="Helvetica,sans-Serif" font-size="10.00">Grammar::isNonterminal</text>
</a>
</g>
</g>
<!-- Node2&#45;&gt;Node6 -->
<g id="edge5" class="edge">
<title>Node2&#45;&gt;Node6</title>
<path fill="none" stroke="midnightblue" d="M296.78,-38.41C319.61,-33.35 347.82,-27.1 371.96,-21.75"/>
<polygon fill="midnightblue" stroke="midnightblue" points="373.03,-25.1 382.03,-19.52 371.51,-18.27 373.03,-25.1"/>
</g>
<!-- Node5 -->
<g id="node5" class="node">
<title>Node5</title>
<g id="a_node5"><a xlink:href="class_grammar.html#a7e62e52a20ab66eed478cb95f3f6dedb" target="_top" xlink:title=" ">
<polygon fill="none" stroke="black" points="528,-38.5 528,-57.5 639,-57.5 639,-38.5 528,-38.5"/>
<text text-anchor="middle" x="583.5" y="-45.5" font-family="Helvetica,sans-Serif" font-size="10.00">Grammar::getFirstSet</text>
</a>
</g>
</g>
<!-- Node4&#45;&gt;Node5 -->
<g id="edge4" class="edge">
<title>Node4&#45;&gt;Node5</title>
<path fill="none" stroke="midnightblue" d="M473.66,-48C487.54,-48 503,-48 517.82,-48"/>
<polygon fill="midnightblue" stroke="midnightblue" points="517.94,-51.5 527.94,-48 517.94,-44.5 517.94,-51.5"/>
</g>
</g>
</svg>
