<?xml version="1.0" encoding="UTF-8" standalone="no"?>
<!DOCTYPE svg PUBLIC "-//W3C//DTD SVG 1.1//EN"
 "http://www.w3.org/Graphics/SVG/1.1/DTD/svg11.dtd">
<!-- Generated by graphviz version 2.50.0 (20211204.2007)
 -->
<!-- Title: GrammarLR1::GrammarLR1 Pages: 1 -->
<!--zoomable 125 -->
<svg id="main" version="1.1" xmlns="http://www.w3.org/2000/svg" xmlns:xlink="http://www.w3.org/1999/xlink" xml:space="preserve" onload="init(evt)">
<style type="text/css"><![CDATA[
.edge:hover path { stroke: red; }
.edge:hover polygon { stroke: red; fill: red; }
]]></style>
<script type="text/javascript"><![CDATA[
var edges = document.getElementsByTagName('g');
if (edges && edges.length) {
  for (var i=0;i<edges.length;i++) {
    if (edges[i].id.substr(0,4)=='edge') {
      edges[i].setAttribute('class','edge');
    }
  }
}
]]></script>
        <defs>
                <circle id="rim" cx="0" cy="0" r="7"/>
                <circle id="rim2" cx="0" cy="0" r="3.5"/>
                <g id="zoomPlus">
                        <use xlink:href="#rim" fill="#404040">
                                <set attributeName="fill" to="#808080" begin="zoomplus.mouseover" end="zoomplus.mouseout"/>
                        </use>
                        <path d="M-4,0h8M0,-4v8" fill="none" stroke="white" stroke-width="1.5" pointer-events="none"/>
                </g>
                <g id="zoomMin">
                        <use xlink:href="#rim" fill="#404040">
                                <set attributeName="fill" to="#808080" begin="zoomminus.mouseover" end="zoomminus.mouseout"/>
                        </use>
                        <path d="M-4,0h8" fill="none" stroke="white" stroke-width="1.5" pointer-events="none"/>
                </g>
                <g id="dirArrow">
                        <path fill="none" stroke="white" stroke-width="1.5" d="M0,-3.0v7 M-2.5,-0.5L0,-3.0L2.5,-0.5"/>
                </g>
               <g id="resetDef">
                       <use xlink:href="#rim2" fill="#404040">
                               <set attributeName="fill" to="#808080" begin="reset.mouseover" end="reset.mouseout"/>
                       </use>
               </g>
        </defs>

<script type="text/javascript">
var viewWidth = 823;
var viewHeight = 125;
var sectionId = 'dynsection-2';
</script>
<script xlink:href="svgpan.js"/>
<svg id="graph" class="graph">
<g id="viewport">
<title>GrammarLR1::GrammarLR1</title>
<!-- Node1 -->
<g id="node1" class="node">
<title>Node1</title>
<g id="a_node1"><a xlink:title=" ">
<polygon fill="#bfbfbf" stroke="black" points="0,-57.5 0,-76.5 140,-76.5 140,-57.5 0,-57.5"/>
<text text-anchor="middle" x="70" y="-64.5" font-family="Helvetica,sans-Serif" font-size="10.00">GrammarLR1::GrammarLR1</text>
</a>
</g>
</g>
<!-- Node2 -->
<g id="node2" class="node">
<title>Node2</title>
<g id="a_node2"><a xlink:href="class_grammar.html#a4a2fdef982ba7524a3f00b343ead73f4" target="_top" xlink:title=" ">
<polygon fill="none" stroke="black" points="187.5,-79.5 187.5,-98.5 309.5,-98.5 309.5,-79.5 187.5,-79.5"/>
<text text-anchor="middle" x="248.5" y="-86.5" font-family="Helvetica,sans-Serif" font-size="10.00">Grammar::getAllFirstSet</text>
</a>
</g>
</g>
<!-- Node1&#45;&gt;Node2 -->
<g id="edge1" class="edge">
<title>Node1&#45;&gt;Node2</title>
<path fill="none" stroke="midnightblue" d="M140.25,-75.63C152.4,-77.15 165.05,-78.72 177.23,-80.24"/>
<polygon fill="midnightblue" stroke="midnightblue" points="176.96,-83.73 187.32,-81.5 177.83,-76.79 176.96,-83.73"/>
</g>
<!-- Node4 -->
<g id="node4" class="node">
<title>Node4</title>
<g id="a_node4"><a xlink:href="class_grammar_l_r1.html#a683b145b305af4628bdccbd937a19f67" target="_top" xlink:title=" ">
<polygon fill="none" stroke="black" points="176,-30 176,-60 321,-60 321,-30 176,-30"/>
<text text-anchor="start" x="184" y="-48" font-family="Helvetica,sans-Serif" font-size="10.00">GrammarLR1::makeItemsSet</text>
<text text-anchor="middle" x="248.5" y="-37" font-family="Helvetica,sans-Serif" font-size="10.00">Family</text>
</a>
</g>
</g>
<!-- Node1&#45;&gt;Node4 -->
<g id="edge4" class="edge">
<title>Node1&#45;&gt;Node4</title>
<path fill="none" stroke="midnightblue" d="M140.25,-58.37C148.65,-57.32 157.29,-56.24 165.85,-55.18"/>
<polygon fill="midnightblue" stroke="midnightblue" points="166.34,-58.64 175.83,-53.93 165.48,-51.7 166.34,-58.64"/>
</g>
<!-- Node3 -->
<g id="node3" class="node">
<title>Node3</title>
<g id="a_node3"><a xlink:href="class_grammar.html#a715baf6276249a525803c68aa1e9b70c" target="_top" xlink:title=" ">
<polygon fill="none" stroke="black" points="373.5,-79.5 373.5,-98.5 483.5,-98.5 483.5,-79.5 373.5,-79.5"/>
<text text-anchor="middle" x="428.5" y="-86.5" font-family="Helvetica,sans-Serif" font-size="10.00">Grammar::calFirstSet</text>
</a>
</g>
</g>
<!-- Node2&#45;&gt;Node3 -->
<g id="edge2" class="edge">
<title>Node2&#45;&gt;Node3</title>
<path fill="none" stroke="midnightblue" d="M309.76,-89C326.96,-89 345.77,-89 363.2,-89"/>
<polygon fill="midnightblue" stroke="midnightblue" points="363.28,-92.5 373.28,-89 363.28,-85.5 363.28,-92.5"/>
</g>
<!-- Node3&#45;&gt;Node3 -->
<g id="edge3" class="edge">
<title>Node3&#45;&gt;Node3</title>
<path fill="none" stroke="midnightblue" d="M401.99,-98.76C389.09,-107.57 397.93,-117 428.5,-117 449.04,-117 459.77,-112.74 460.69,-107.27"/>
<polygon fill="midnightblue" stroke="midnightblue" points="463.47,-105.14 455.01,-98.76 457.64,-109.02 463.47,-105.14"/>
</g>
<!-- Node5 -->
<g id="node5" class="node">
<title>Node5</title>
<g id="a_node5"><a xlink:href="class_items_set.html#a28298256962b2f6ebb51eb0f1cf56cfc" target="_top" xlink:title="闭包">
<polygon fill="none" stroke="black" points="381.5,-38.5 381.5,-57.5 475.5,-57.5 475.5,-38.5 381.5,-38.5"/>
<text text-anchor="middle" x="428.5" y="-45.5" font-family="Helvetica,sans-Serif" font-size="10.00">ItemsSet::closure</text>
</a>
</g>
</g>
<!-- Node4&#45;&gt;Node5 -->
<g id="edge5" class="edge">
<title>Node4&#45;&gt;Node5</title>
<path fill="none" stroke="midnightblue" d="M321.13,-46.21C337.77,-46.49 355.26,-46.78 371.13,-47.05"/>
<polygon fill="midnightblue" stroke="midnightblue" points="371.25,-50.55 381.31,-47.22 371.37,-43.55 371.25,-50.55"/>
</g>
<!-- Node10 -->
<g id="node10" class="node">
<title>Node10</title>
<g id="a_node10"><a xlink:href="class_items_set.html#ac4e3adeccfb8939c9416f6c1882de235" target="_top" xlink:title=" ">
<polygon fill="none" stroke="black" points="357,-0.5 357,-19.5 500,-19.5 500,-0.5 357,-0.5"/>
<text text-anchor="middle" x="428.5" y="-7.5" font-family="Helvetica,sans-Serif" font-size="10.00">ItemsSet::isAllToBeReduced</text>
</a>
</g>
</g>
<!-- Node4&#45;&gt;Node10 -->
<g id="edge10" class="edge">
<title>Node4&#45;&gt;Node10</title>
<path fill="none" stroke="midnightblue" d="M321.13,-30.92C337.06,-27.78 353.76,-24.5 369.08,-21.49"/>
<polygon fill="midnightblue" stroke="midnightblue" points="369.8,-24.91 378.93,-19.55 368.44,-18.05 369.8,-24.91"/>
</g>
<!-- Node6 -->
<g id="node6" class="node">
<title>Node6</title>
<g id="a_node6"><a xlink:href="class_grammar.html#a2c8d1fdf2eef2d7ccd987fd9d3a8445f" target="_top" xlink:title=" ">
<polygon fill="none" stroke="black" points="536,-76.5 536,-95.5 668,-95.5 668,-76.5 536,-76.5"/>
<text text-anchor="middle" x="602" y="-83.5" font-family="Helvetica,sans-Serif" font-size="10.00">Grammar::findRulesScope</text>
</a>
</g>
</g>
<!-- Node5&#45;&gt;Node6 -->
<g id="edge6" class="edge">
<title>Node5&#45;&gt;Node6</title>
<path fill="none" stroke="midnightblue" d="M472.78,-57.59C495.61,-62.65 523.82,-68.9 547.96,-74.25"/>
<polygon fill="midnightblue" stroke="midnightblue" points="547.51,-77.73 558.03,-76.48 549.03,-70.9 547.51,-77.73"/>
</g>
<!-- Node7 -->
<g id="node7" class="node">
<title>Node7</title>
<g id="a_node7"><a xlink:href="class_items_set.html#ac722f837ced519f0d28ad9bcdad8c067" target="_top" xlink:title=" ">
<polygon fill="none" stroke="black" points="554.5,-38.5 554.5,-57.5 649.5,-57.5 649.5,-38.5 554.5,-38.5"/>
<text text-anchor="middle" x="602" y="-45.5" font-family="Helvetica,sans-Serif" font-size="10.00">ItemsSet::getFirst</text>
</a>
</g>
</g>
<!-- Node5&#45;&gt;Node7 -->
<g id="edge7" class="edge">
<title>Node5&#45;&gt;Node7</title>
<path fill="none" stroke="midnightblue" d="M475.91,-48C496.89,-48 521.88,-48 543.99,-48"/>
<polygon fill="midnightblue" stroke="midnightblue" points="544.25,-51.5 554.25,-48 544.25,-44.5 544.25,-51.5"/>
</g>
<!-- Node9 -->
<g id="node9" class="node">
<title>Node9</title>
<g id="a_node9"><a xlink:href="class_grammar.html#ae41d5ebe716d6a3f199881e8cdb2f4e9" target="_top" xlink:title=" ">
<polygon fill="none" stroke="black" points="540.5,-0.5 540.5,-19.5 663.5,-19.5 663.5,-0.5 540.5,-0.5"/>
<text text-anchor="middle" x="602" y="-7.5" font-family="Helvetica,sans-Serif" font-size="10.00">Grammar::isNonterminal</text>
</a>
</g>
</g>
<!-- Node5&#45;&gt;Node9 -->
<g id="edge9" class="edge">
<title>Node5&#45;&gt;Node9</title>
<path fill="none" stroke="midnightblue" d="M472.78,-38.41C495.61,-33.35 523.82,-27.1 547.96,-21.75"/>
<polygon fill="midnightblue" stroke="midnightblue" points="549.03,-25.1 558.03,-19.52 547.51,-18.27 549.03,-25.1"/>
</g>
<!-- Node8 -->
<g id="node8" class="node">
<title>Node8</title>
<g id="a_node8"><a xlink:href="class_grammar.html#a7e62e52a20ab66eed478cb95f3f6dedb" target="_top" xlink:title=" ">
<polygon fill="none" stroke="black" points="704,-38.5 704,-57.5 815,-57.5 815,-38.5 704,-38.5"/>
<text text-anchor="middle" x="759.5" y="-45.5" font-family="Helvetica,sans-Serif" font-size="10.00">Grammar::getFirstSet</text>
</a>
</g>
</g>
<!-- Node7&#45;&gt;Node8 -->
<g id="edge8" class="edge">
<title>Node7&#45;&gt;Node8</title>
<path fill="none" stroke="midnightblue" d="M649.66,-48C663.54,-48 679,-48 693.82,-48"/>
<polygon fill="midnightblue" stroke="midnightblue" points="693.94,-51.5 703.94,-48 693.94,-44.5 693.94,-51.5"/>
</g>
</g>
</svg>
        <g id="navigator" transform="translate(0 0)" fill="#404254">
                <rect fill="#f2f5e9" fill-opacity="0.5" stroke="#606060" stroke-width=".5" x="0" y="0" width="60" height="60"/>
                <use id="zoomplus" xlink:href="#zoomPlus" x="17" y="9" onmousedown="handleZoom(evt,'in')"/>
                <use id="zoomminus" xlink:href="#zoomMin" x="42" y="9" onmousedown="handleZoom(evt,'out')"/>
                <use id="reset" xlink:href="#resetDef" x="30" y="36" onmousedown="handleReset()"/>
                <g id="arrowUp" xlink:href="#dirArrow" transform="translate(30 24)" onmousedown="handlePan(0,-1)">
                  <use xlink:href="#rim" fill="#404040">
                        <set attributeName="fill" to="#808080" begin="arrowUp.mouseover" end="arrowUp.mouseout"/>
                  </use>
                  <path fill="none" stroke="white" stroke-width="1.5" d="M0,-3.0v7 M-2.5,-0.5L0,-3.0L2.5,-0.5"/>
                </g>
                <g id="arrowRight" xlink:href="#dirArrow" transform="rotate(90) translate(36 -43)" onmousedown="handlePan(1,0)">
                  <use xlink:href="#rim" fill="#404040">
                        <set attributeName="fill" to="#808080" begin="arrowRight.mouseover" end="arrowRight.mouseout"/>
                  </use>
                  <path fill="none" stroke="white" stroke-width="1.5" d="M0,-3.0v7 M-2.5,-0.5L0,-3.0L2.5,-0.5"/>
                </g>
                <g id="arrowDown" xlink:href="#dirArrow" transform="rotate(180) translate(-30 -48)" onmousedown="handlePan(0,1)">
                  <use xlink:href="#rim" fill="#404040">
                        <set attributeName="fill" to="#808080" begin="arrowDown.mouseover" end="arrowDown.mouseout"/>
                  </use>
                  <path fill="none" stroke="white" stroke-width="1.5" d="M0,-3.0v7 M-2.5,-0.5L0,-3.0L2.5,-0.5"/>
                </g>
                <g id="arrowLeft" xlink:href="#dirArrow" transform="rotate(270) translate(-36 17)" onmousedown="handlePan(-1,0)">
                  <use xlink:href="#rim" fill="#404040">
                        <set attributeName="fill" to="#808080" begin="arrowLeft.mouseover" end="arrowLeft.mouseout"/>
                  </use>
                  <path fill="none" stroke="white" stroke-width="1.5" d="M0,-3.0v7 M-2.5,-0.5L0,-3.0L2.5,-0.5"/>
                </g>
        </g>
        <svg viewBox="0 0 15 15" width="100%" height="30px" preserveAspectRatio="xMaxYMin meet">
         <g id="arrow_out" transform="scale(0.3 0.3)">
          <a xlink:href="class_grammar_l_r1_a879332bf2fe1ef3da34bb19fdd18d98d_cgraph_org.svg" target="_base">
           <rect id="button" ry="5" rx="5" y="6" x="6" height="38" width="38"
                fill="#f2f5e9" fill-opacity="0.5" stroke="#606060" stroke-width="1.0"/>
           <path id="arrow"
             d="M 11.500037,31.436501 C 11.940474,20.09759 22.043105,11.32322 32.158766,21.979434 L 37.068811,17.246167 C 37.068811,17.246167 37.088388,32 37.088388,32 L 22.160133,31.978069 C 22.160133,31.978069 26.997745,27.140456 26.997745,27.140456 C 18.528582,18.264221 13.291696,25.230495 11.500037,31.436501 z"
             style="fill:#404040;"/>
          </a>
         </g>
        </svg>
</svg>
