<?xml version="1.0" encoding="UTF-8" standalone="no"?>
<!DOCTYPE svg PUBLIC "-//W3C//DTD SVG 1.1//EN"
 "http://www.w3.org/Graphics/SVG/1.1/DTD/svg11.dtd">
<!-- Generated by graphviz version 2.50.0 (20211204.2007)
 -->
<!-- Title: ItemsSet::isAllToBeReduced Pages: 1 -->
<svg width="508pt" height="39pt"
 viewBox="0.00 0.00 508.00 39.00" xmlns="http://www.w3.org/2000/svg" xmlns:xlink="http://www.w3.org/1999/xlink">
<g id="graph0" class="graph" transform="scale(1 1) rotate(0) translate(4 35)">
<title>ItemsSet::isAllToBeReduced</title>
<!-- Node1 -->
<g id="node1" class="node">
<title>Node1</title>
<g id="a_node1"><a xlink:title=" ">
<polygon fill="#bfbfbf" stroke="black" points="357,-6 357,-25 500,-25 500,-6 357,-6"/>
<text text-anchor="middle" x="428.5" y="-13" font-family="Helvetica,sans-Serif" font-size="10.00">ItemsSet::isAllToBeReduced</text>
</a>
</g>
</g>
<!-- Node2 -->
<g id="node2" class="node">
<title>Node2</title>
<g id="a_node2"><a xlink:href="class_grammar_l_r1.html#a683b145b305af4628bdccbd937a19f67" target="_top" xlink:title=" ">
<polygon fill="none" stroke="black" points="176,-0.5 176,-30.5 321,-30.5 321,-0.5 176,-0.5"/>
<text text-anchor="start" x="184" y="-18.5" font-family="Helvetica,sans-Serif" font-size="10.00">GrammarLR1::makeItemsSet</text>
<text text-anchor="middle" x="248.5" y="-7.5" font-family="Helvetica,sans-Serif" font-size="10.00">Family</text>
</a>
</g>
</g>
<!-- Node1&#45;&gt;Node2 -->
<g id="edge1" class="edge">
<title>Node1&#45;&gt;Node2</title>
<path fill="none" stroke="midnightblue" d="M346.62,-15.5C338.14,-15.5 329.56,-15.5 321.19,-15.5"/>
<polygon fill="midnightblue" stroke="midnightblue" points="346.89,-19 356.89,-15.5 346.89,-12 346.89,-19"/>
</g>
<!-- Node3 -->
<g id="node3" class="node">
<title>Node3</title>
<g id="a_node3"><a xlink:href="class_grammar_l_r1.html#a879332bf2fe1ef3da34bb19fdd18d98d" target="_top" xlink:title=" ">
<polygon fill="none" stroke="black" points="0,-6 0,-25 140,-25 140,-6 0,-6"/>
<text text-anchor="middle" x="70" y="-13" font-family="Helvetica,sans-Serif" font-size="10.00">GrammarLR1::GrammarLR1</text>
</a>
</g>
</g>
<!-- Node2&#45;&gt;Node3 -->
<g id="edge2" class="edge">
<title>Node2&#45;&gt;Node3</title>
<path fill="none" stroke="midnightblue" d="M165.89,-15.5C157.25,-15.5 148.53,-15.5 140.06,-15.5"/>
<polygon fill="midnightblue" stroke="midnightblue" points="165.97,-19 175.97,-15.5 165.97,-12 165.97,-19"/>
</g>
</g>
</svg>
