<?xml version="1.0" encoding="UTF-8" standalone="no"?>
<!DOCTYPE svg PUBLIC "-//W3C//DTD SVG 1.1//EN"
 "http://www.w3.org/Graphics/SVG/1.1/DTD/svg11.dtd">
<!-- Generated by graphviz version 2.50.0 (20211204.2007)
 -->
<!-- Title: GrammarLR1 Pages: 1 -->
<svg width="746pt" height="722pt"
 viewBox="0.00 0.00 745.50 722.00" xmlns="http://www.w3.org/2000/svg" xmlns:xlink="http://www.w3.org/1999/xlink">
<g id="graph0" class="graph" transform="scale(1 1) rotate(0) translate(4 718)">
<title>GrammarLR1</title>
<!-- Node1 -->
<g id="node1" class="node">
<title>Node1</title>
<g id="a_node1"><a xlink:title="LR1文法">
<polygon fill="#bfbfbf" stroke="black" points="490,-0.5 490,-233.5 633,-233.5 633,-0.5 490,-0.5"/>
<text text-anchor="middle" x="561.5" y="-221.5" font-family="Helvetica,sans-Serif" font-size="10.00">GrammarLR1</text>
<polyline fill="none" stroke="black" points="490,-214.5 633,-214.5 "/>
<text text-anchor="middle" x="561.5" y="-202.5" font-family="Helvetica,sans-Serif" font-size="10.00"> </text>
<polyline fill="none" stroke="black" points="490,-195.5 633,-195.5 "/>
<text text-anchor="start" x="498" y="-183.5" font-family="Helvetica,sans-Serif" font-size="10.00">+ GrammarLR1(ifstream &amp;in)</text>
<text text-anchor="start" x="498" y="-172.5" font-family="Helvetica,sans-Serif" font-size="10.00">+ void printACTION(ostream</text>
<text text-anchor="start" x="498" y="-161.5" font-family="Helvetica,sans-Serif" font-size="10.00"> &amp;os) const</text>
<text text-anchor="start" x="498" y="-150.5" font-family="Helvetica,sans-Serif" font-size="10.00">+ void printGOTO(ostream</text>
<text text-anchor="start" x="498" y="-139.5" font-family="Helvetica,sans-Serif" font-size="10.00"> &amp;os) const</text>
<text text-anchor="start" x="498" y="-128.5" font-family="Helvetica,sans-Serif" font-size="10.00">+ void printItemsFamily</text>
<text text-anchor="start" x="498" y="-117.5" font-family="Helvetica,sans-Serif" font-size="10.00">(ostream &amp;os) const</text>
<text text-anchor="start" x="498" y="-106.5" font-family="Helvetica,sans-Serif" font-size="10.00">+ void parser(vector</text>
<text text-anchor="start" x="498" y="-95.5" font-family="Helvetica,sans-Serif" font-size="10.00">&lt; string &gt; &amp;input)</text>
<text text-anchor="start" x="498" y="-84.5" font-family="Helvetica,sans-Serif" font-size="10.00">+ void DFS(const shared</text>
<text text-anchor="start" x="498" y="-73.5" font-family="Helvetica,sans-Serif" font-size="10.00">_ptr&lt; Node &gt; &amp;node, int</text>
<text text-anchor="start" x="498" y="-62.5" font-family="Helvetica,sans-Serif" font-size="10.00"> depth=1)</text>
<text text-anchor="start" x="498" y="-51.5" font-family="Helvetica,sans-Serif" font-size="10.00">+ void printAST(vector</text>
<text text-anchor="start" x="498" y="-40.5" font-family="Helvetica,sans-Serif" font-size="10.00">&lt; string &gt; &amp;input)</text>
<text text-anchor="start" x="498" y="-29.5" font-family="Helvetica,sans-Serif" font-size="10.00">&#45; void buildGrammarAnalysis</text>
<text text-anchor="start" x="498" y="-18.5" font-family="Helvetica,sans-Serif" font-size="10.00">Tree(vector&lt; string &gt; &amp;input)</text>
<text text-anchor="start" x="498" y="-7.5" font-family="Helvetica,sans-Serif" font-size="10.00">&#45; void makeItemsSetFamily()</text>
</a>
</g>
</g>
<!-- Node2 -->
<g id="node2" class="node">
<title>Node2</title>
<g id="a_node2"><a xlink:href="class_grammar.html" target="_top" xlink:title=" ">
<polygon fill="none" stroke="black" points="201,-281.5 201,-459.5 346,-459.5 346,-281.5 201,-281.5"/>
<text text-anchor="middle" x="273.5" y="-447.5" font-family="Helvetica,sans-Serif" font-size="10.00">Grammar</text>
<polyline fill="none" stroke="black" points="201,-440.5 346,-440.5 "/>
<text text-anchor="middle" x="273.5" y="-428.5" font-family="Helvetica,sans-Serif" font-size="10.00"> </text>
<polyline fill="none" stroke="black" points="201,-421.5 346,-421.5 "/>
<text text-anchor="start" x="209" y="-409.5" font-family="Helvetica,sans-Serif" font-size="10.00">+ Grammar(ifstream &amp;in)</text>
<text text-anchor="start" x="209" y="-398.5" font-family="Helvetica,sans-Serif" font-size="10.00">+ bool isNonterminal</text>
<text text-anchor="start" x="209" y="-387.5" font-family="Helvetica,sans-Serif" font-size="10.00">(const string &amp;s) const</text>
<text text-anchor="start" x="209" y="-376.5" font-family="Helvetica,sans-Serif" font-size="10.00">+ pair&lt; RULE::const_iterator,</text>
<text text-anchor="start" x="209" y="-365.5" font-family="Helvetica,sans-Serif" font-size="10.00"> RULE::const_iterator &gt;</text>
<text text-anchor="start" x="209" y="-354.5" font-family="Helvetica,sans-Serif" font-size="10.00"> findRulesScope(const string</text>
<text text-anchor="start" x="209" y="-343.5" font-family="Helvetica,sans-Serif" font-size="10.00"> &amp;symbol) const</text>
<text text-anchor="start" x="209" y="-332.5" font-family="Helvetica,sans-Serif" font-size="10.00">+ void getAllFirstSet()</text>
<text text-anchor="start" x="209" y="-321.5" font-family="Helvetica,sans-Serif" font-size="10.00">+ set&lt; string &gt; &amp; getFirst</text>
<text text-anchor="start" x="209" y="-310.5" font-family="Helvetica,sans-Serif" font-size="10.00">Set(const string &amp;symbol)</text>
<text text-anchor="start" x="209" y="-299.5" font-family="Helvetica,sans-Serif" font-size="10.00">+ set&lt; string &gt; calFirstSet</text>
<text text-anchor="start" x="209" y="-288.5" font-family="Helvetica,sans-Serif" font-size="10.00">(const string &amp;symbol)</text>
</a>
</g>
</g>
<!-- Node2&#45;&gt;Node1 -->
<g id="edge1" class="edge">
<title>Node2&#45;&gt;Node1</title>
<path fill="none" stroke="midnightblue" d="M353.76,-299.41C396.46,-262.13 448.52,-216.66 489.85,-180.57"/>
<polygon fill="none" stroke="midnightblue" points="351.4,-296.82 346.17,-306.04 356.01,-302.09 351.4,-296.82"/>
</g>
<!-- Node3 -->
<g id="node3" class="node">
<title>Node3</title>
<g id="a_node3"><a xlink:title=" ">
<polygon fill="none" stroke="#bfbfbf" points="0,-535 0,-592 29,-592 29,-535 0,-535"/>
<text text-anchor="middle" x="14.5" y="-580" font-family="Helvetica,sans-Serif" font-size="10.00">int</text>
<polyline fill="none" stroke="#bfbfbf" points="0,-573 29,-573 "/>
<text text-anchor="middle" x="14.5" y="-561" font-family="Helvetica,sans-Serif" font-size="10.00"> </text>
<polyline fill="none" stroke="#bfbfbf" points="0,-554 29,-554 "/>
<text text-anchor="middle" x="14.5" y="-542" font-family="Helvetica,sans-Serif" font-size="10.00"> </text>
</a>
</g>
</g>
<!-- Node3&#45;&gt;Node2 -->
<g id="edge2" class="edge">
<title>Node3&#45;&gt;Node2</title>
<path fill="none" stroke="#404040" d="M16.77,-534.95C19.56,-516.91 25.75,-493.82 39.5,-478 78.13,-433.56 139.09,-406.64 189.11,-390.99"/>
<polygon fill="none" stroke="#404040" points="189.41,-390.89 194.01,-385.33 200.91,-387.44 196.31,-392.99 189.41,-390.89"/>
<text text-anchor="middle" x="80.5" y="-503" font-family="Helvetica,sans-Serif" font-size="10.00"> #nonTerminalNum</text>
<text text-anchor="middle" x="80.5" y="-492" font-family="Helvetica,sans-Serif" font-size="10.00">#rulesNum</text>
<text text-anchor="middle" x="80.5" y="-481" font-family="Helvetica,sans-Serif" font-size="10.00">#terminalNum</text>
</g>
<!-- Node4 -->
<g id="node4" class="node">
<title>Node4</title>
<g id="a_node4"><a xlink:title=" ">
<polygon fill="none" stroke="#bfbfbf" points="47.5,-535 47.5,-592 119.5,-592 119.5,-535 47.5,-535"/>
<text text-anchor="middle" x="83.5" y="-580" font-family="Helvetica,sans-Serif" font-size="10.00">set&lt; string &gt;</text>
<polyline fill="none" stroke="#bfbfbf" points="47.5,-573 119.5,-573 "/>
<text text-anchor="middle" x="83.5" y="-561" font-family="Helvetica,sans-Serif" font-size="10.00"> </text>
<polyline fill="none" stroke="#bfbfbf" points="47.5,-554 119.5,-554 "/>
<text text-anchor="middle" x="83.5" y="-542" font-family="Helvetica,sans-Serif" font-size="10.00"> </text>
</a>
</g>
</g>
<!-- Node4&#45;&gt;Node2 -->
<g id="edge3" class="edge">
<title>Node4&#45;&gt;Node2</title>
<path fill="none" stroke="#404040" d="M104.17,-534.9C117.35,-517.91 135.15,-496 152.5,-478 164.65,-465.39 178.09,-452.59 191.46,-440.43"/>
<polygon fill="none" stroke="#404040" points="191.76,-440.16 193.55,-433.17 200.69,-432.13 198.9,-439.12 191.76,-440.16"/>
<text text-anchor="middle" x="186" y="-497.5" font-family="Helvetica,sans-Serif" font-size="10.00"> #nonTerminals</text>
<text text-anchor="middle" x="186" y="-486.5" font-family="Helvetica,sans-Serif" font-size="10.00">#terminals</text>
</g>
<!-- Node5 -->
<g id="node5" class="node">
<title>Node5</title>
<g id="a_node5"><a xlink:title=" ">
<polygon fill="none" stroke="#bfbfbf" points="68.5,-656.5 68.5,-713.5 98.5,-713.5 98.5,-656.5 68.5,-656.5"/>
<text text-anchor="middle" x="83.5" y="-701.5" font-family="Helvetica,sans-Serif" font-size="10.00">set</text>
<polyline fill="none" stroke="#bfbfbf" points="68.5,-694.5 98.5,-694.5 "/>
<text text-anchor="middle" x="83.5" y="-682.5" font-family="Helvetica,sans-Serif" font-size="10.00"> </text>
<polyline fill="none" stroke="#bfbfbf" points="68.5,-675.5 98.5,-675.5 "/>
<text text-anchor="middle" x="83.5" y="-663.5" font-family="Helvetica,sans-Serif" font-size="10.00"> </text>
</a>
</g>
</g>
<!-- Node5&#45;&gt;Node4 -->
<g id="edge4" class="edge">
<title>Node5&#45;&gt;Node4</title>
<path fill="none" stroke="orange" d="M83.5,-645.83C83.5,-628.35 83.5,-608.03 83.5,-592.07"/>
<polygon fill="orange" stroke="orange" points="80,-646.28 83.5,-656.28 87,-646.28 80,-646.28"/>
<text text-anchor="middle" x="106.5" y="-624.5" font-family="Helvetica,sans-Serif" font-size="10.00"> &lt; string &gt;</text>
</g>
<!-- Node6 -->
<g id="node6" class="node">
<title>Node6</title>
<g id="a_node6"><a xlink:title=" ">
<polygon fill="none" stroke="#bfbfbf" points="138,-529.5 138,-597.5 267,-597.5 267,-529.5 138,-529.5"/>
<text text-anchor="start" x="146" y="-585.5" font-family="Helvetica,sans-Serif" font-size="10.00">multimap&lt; string, pair</text>
<text text-anchor="middle" x="202.5" y="-574.5" font-family="Helvetica,sans-Serif" font-size="10.00">&lt; vector&lt; string &gt;, int &gt; &gt;</text>
<polyline fill="none" stroke="#bfbfbf" points="138,-567.5 267,-567.5 "/>
<text text-anchor="middle" x="202.5" y="-555.5" font-family="Helvetica,sans-Serif" font-size="10.00"> </text>
<polyline fill="none" stroke="#bfbfbf" points="138,-548.5 267,-548.5 "/>
<text text-anchor="middle" x="202.5" y="-536.5" font-family="Helvetica,sans-Serif" font-size="10.00"> </text>
</a>
</g>
</g>
<!-- Node6&#45;&gt;Node2 -->
<g id="edge5" class="edge">
<title>Node6&#45;&gt;Node2</title>
<path fill="none" stroke="#404040" d="M214.87,-529.23C220.96,-512.83 228.67,-492.1 236.48,-471.1"/>
<polygon fill="none" stroke="#404040" points="236.5,-471.02 234.85,-464.01 240.69,-459.78 242.34,-466.79 236.5,-471.02"/>
<text text-anchor="middle" x="249.5" y="-492" font-family="Helvetica,sans-Serif" font-size="10.00"> #rules</text>
</g>
<!-- Node7 -->
<g id="node7" class="node">
<title>Node7</title>
<g id="a_node7"><a xlink:title=" ">
<polygon fill="none" stroke="#bfbfbf" points="174.5,-656.5 174.5,-713.5 230.5,-713.5 230.5,-656.5 174.5,-656.5"/>
<text text-anchor="middle" x="202.5" y="-701.5" font-family="Helvetica,sans-Serif" font-size="10.00">multimap</text>
<polyline fill="none" stroke="#bfbfbf" points="174.5,-694.5 230.5,-694.5 "/>
<text text-anchor="middle" x="202.5" y="-682.5" font-family="Helvetica,sans-Serif" font-size="10.00"> </text>
<polyline fill="none" stroke="#bfbfbf" points="174.5,-675.5 230.5,-675.5 "/>
<text text-anchor="middle" x="202.5" y="-663.5" font-family="Helvetica,sans-Serif" font-size="10.00"> </text>
</a>
</g>
</g>
<!-- Node7&#45;&gt;Node6 -->
<g id="edge6" class="edge">
<title>Node7&#45;&gt;Node6</title>
<path fill="none" stroke="orange" d="M202.5,-645.95C202.5,-630.4 202.5,-612.58 202.5,-597.59"/>
<polygon fill="orange" stroke="orange" points="199,-646.28 202.5,-656.28 206,-646.28 199,-646.28"/>
<text text-anchor="start" x="202.5" y="-630" font-family="Helvetica,sans-Serif" font-size="10.00"> &lt; string, pair&lt; vector</text>
<text text-anchor="middle" x="249.5" y="-619" font-family="Helvetica,sans-Serif" font-size="10.00">&lt; string &gt;, int &gt; &gt;</text>
</g>
<!-- Node8 -->
<g id="node8" class="node">
<title>Node8</title>
<g id="a_node8"><a xlink:title=" ">
<polygon fill="none" stroke="#bfbfbf" points="285,-535 285,-592 326,-592 326,-535 285,-535"/>
<text text-anchor="middle" x="305.5" y="-580" font-family="Helvetica,sans-Serif" font-size="10.00">string</text>
<polyline fill="none" stroke="#bfbfbf" points="285,-573 326,-573 "/>
<text text-anchor="middle" x="305.5" y="-561" font-family="Helvetica,sans-Serif" font-size="10.00"> </text>
<polyline fill="none" stroke="#bfbfbf" points="285,-554 326,-554 "/>
<text text-anchor="middle" x="305.5" y="-542" font-family="Helvetica,sans-Serif" font-size="10.00"> </text>
</a>
</g>
</g>
<!-- Node8&#45;&gt;Node2 -->
<g id="edge7" class="edge">
<title>Node8&#45;&gt;Node2</title>
<path fill="none" stroke="#404040" d="M300.85,-534.73C298.01,-517.81 294.2,-495.05 290.32,-471.91"/>
<polygon fill="none" stroke="#404040" points="290.28,-471.64 285.34,-466.38 288.29,-459.8 293.23,-465.06 290.28,-471.64"/>
<text text-anchor="middle" x="327" y="-492" font-family="Helvetica,sans-Serif" font-size="10.00"> #startSymbol</text>
</g>
<!-- Node9 -->
<g id="node9" class="node">
<title>Node9</title>
<g id="a_node9"><a xlink:title=" ">
<polygon fill="none" stroke="#bfbfbf" points="344,-535 344,-592 483,-592 483,-535 344,-535"/>
<text text-anchor="middle" x="413.5" y="-580" font-family="Helvetica,sans-Serif" font-size="10.00">map&lt; string, set&lt; string &gt; &gt;</text>
<polyline fill="none" stroke="#bfbfbf" points="344,-573 483,-573 "/>
<text text-anchor="middle" x="413.5" y="-561" font-family="Helvetica,sans-Serif" font-size="10.00"> </text>
<polyline fill="none" stroke="#bfbfbf" points="344,-554 483,-554 "/>
<text text-anchor="middle" x="413.5" y="-542" font-family="Helvetica,sans-Serif" font-size="10.00"> </text>
</a>
</g>
</g>
<!-- Node9&#45;&gt;Node2 -->
<g id="edge8" class="edge">
<title>Node9&#45;&gt;Node2</title>
<path fill="none" stroke="#404040" d="M397.81,-534.86C387.94,-518.05 374.63,-496.35 361.5,-478 358.9,-474.37 356.22,-470.71 353.48,-467.04"/>
<polygon fill="none" stroke="#404040" points="353.35,-466.87 346.53,-464.51 346.09,-457.31 352.91,-459.67 353.35,-466.87"/>
<text text-anchor="middle" x="403.5" y="-492" font-family="Helvetica,sans-Serif" font-size="10.00"> #firstSet</text>
</g>
<!-- Node10 -->
<g id="node10" class="node">
<title>Node10</title>
<g id="a_node10"><a xlink:title=" ">
<polygon fill="none" stroke="#bfbfbf" points="396,-656.5 396,-713.5 431,-713.5 431,-656.5 396,-656.5"/>
<text text-anchor="middle" x="413.5" y="-701.5" font-family="Helvetica,sans-Serif" font-size="10.00">map</text>
<polyline fill="none" stroke="#bfbfbf" points="396,-694.5 431,-694.5 "/>
<text text-anchor="middle" x="413.5" y="-682.5" font-family="Helvetica,sans-Serif" font-size="10.00"> </text>
<polyline fill="none" stroke="#bfbfbf" points="396,-675.5 431,-675.5 "/>
<text text-anchor="middle" x="413.5" y="-663.5" font-family="Helvetica,sans-Serif" font-size="10.00"> </text>
</a>
</g>
</g>
<!-- Node10&#45;&gt;Node9 -->
<g id="edge9" class="edge">
<title>Node10&#45;&gt;Node9</title>
<path fill="none" stroke="orange" d="M413.5,-645.83C413.5,-628.35 413.5,-608.03 413.5,-592.07"/>
<polygon fill="orange" stroke="orange" points="410,-646.28 413.5,-656.28 417,-646.28 410,-646.28"/>
<text text-anchor="middle" x="467" y="-624.5" font-family="Helvetica,sans-Serif" font-size="10.00"> &lt; string, set&lt; string &gt; &gt;</text>
</g>
<!-- Node11 -->
<g id="node11" class="node">
<title>Node11</title>
<g id="a_node11"><a xlink:title=" ">
<polygon fill="none" stroke="#bfbfbf" points="418,-342 418,-399 519,-399 519,-342 418,-342"/>
<text text-anchor="middle" x="468.5" y="-387" font-family="Helvetica,sans-Serif" font-size="10.00">vector&lt; ItemsSet &gt;</text>
<polyline fill="none" stroke="#bfbfbf" points="418,-380 519,-380 "/>
<text text-anchor="middle" x="468.5" y="-368" font-family="Helvetica,sans-Serif" font-size="10.00"> </text>
<polyline fill="none" stroke="#bfbfbf" points="418,-361 519,-361 "/>
<text text-anchor="middle" x="468.5" y="-349" font-family="Helvetica,sans-Serif" font-size="10.00"> </text>
</a>
</g>
</g>
<!-- Node11&#45;&gt;Node1 -->
<g id="edge10" class="edge">
<title>Node11&#45;&gt;Node1</title>
<path fill="none" stroke="#404040" d="M468.61,-341.73C469.45,-317.46 472.51,-281.59 482.5,-252 483.38,-249.4 484.31,-246.8 485.29,-244.19"/>
<polygon fill="none" stroke="#404040" points="485.4,-243.92 483.94,-236.86 489.89,-232.79 491.35,-239.85 485.4,-243.92"/>
<text text-anchor="middle" x="520" y="-255" font-family="Helvetica,sans-Serif" font-size="10.00"> &#45;itemsSetFamily</text>
</g>
<!-- Node12 -->
<g id="node12" class="node">
<title>Node12</title>
<g id="a_node12"><a xlink:title=" ">
<polygon fill="none" stroke="#bfbfbf" points="501.5,-535 501.5,-592 545.5,-592 545.5,-535 501.5,-535"/>
<text text-anchor="middle" x="523.5" y="-580" font-family="Helvetica,sans-Serif" font-size="10.00">vector</text>
<polyline fill="none" stroke="#bfbfbf" points="501.5,-573 545.5,-573 "/>
<text text-anchor="middle" x="523.5" y="-561" font-family="Helvetica,sans-Serif" font-size="10.00"> </text>
<polyline fill="none" stroke="#bfbfbf" points="501.5,-554 545.5,-554 "/>
<text text-anchor="middle" x="523.5" y="-542" font-family="Helvetica,sans-Serif" font-size="10.00"> </text>
</a>
</g>
</g>
<!-- Node12&#45;&gt;Node11 -->
<g id="edge11" class="edge">
<title>Node12&#45;&gt;Node11</title>
<path fill="none" stroke="orange" d="M512.65,-524.83C502.01,-487.89 486.04,-432.42 476.51,-399.31"/>
<polygon fill="orange" stroke="orange" points="509.37,-526.09 515.5,-534.73 516.1,-524.15 509.37,-526.09"/>
<text text-anchor="middle" x="537" y="-492" font-family="Helvetica,sans-Serif" font-size="10.00"> &lt; ItemsSet &gt;</text>
</g>
<!-- Node13 -->
<g id="node13" class="node">
<title>Node13</title>
<g id="a_node13"><a xlink:title=" ">
<polygon fill="none" stroke="#bfbfbf" points="541,-342 541,-399 582,-399 582,-342 541,-342"/>
<text text-anchor="middle" x="561.5" y="-387" font-family="Helvetica,sans-Serif" font-size="10.00">map&lt;</text>
<polyline fill="none" stroke="#bfbfbf" points="541,-380 582,-380 "/>
<text text-anchor="middle" x="561.5" y="-368" font-family="Helvetica,sans-Serif" font-size="10.00"> </text>
<polyline fill="none" stroke="#bfbfbf" points="541,-361 582,-361 "/>
<text text-anchor="middle" x="561.5" y="-349" font-family="Helvetica,sans-Serif" font-size="10.00"> </text>
</a>
</g>
</g>
<!-- Node13&#45;&gt;Node1 -->
<g id="edge12" class="edge">
<title>Node13&#45;&gt;Node1</title>
<path fill="none" stroke="#404040" d="M561.5,-341.62C561.5,-317.9 561.5,-282 561.5,-245.87"/>
<polygon fill="none" stroke="#404040" points="561.5,-245.63 557.5,-239.63 561.5,-233.63 565.5,-239.63 561.5,-245.63"/>
<text text-anchor="middle" x="586" y="-255" font-family="Helvetica,sans-Serif" font-size="10.00"> &#45;gotoTable</text>
</g>
<!-- Node14 -->
<g id="node14" class="node">
<title>Node14</title>
<g id="a_node14"><a xlink:title=" ">
<polygon fill="none" stroke="#bfbfbf" points="616,-342 616,-399 651,-399 651,-342 616,-342"/>
<text text-anchor="middle" x="633.5" y="-387" font-family="Helvetica,sans-Serif" font-size="10.00">bool</text>
<polyline fill="none" stroke="#bfbfbf" points="616,-380 651,-380 "/>
<text text-anchor="middle" x="633.5" y="-368" font-family="Helvetica,sans-Serif" font-size="10.00"> </text>
<polyline fill="none" stroke="#bfbfbf" points="616,-361 651,-361 "/>
<text text-anchor="middle" x="633.5" y="-349" font-family="Helvetica,sans-Serif" font-size="10.00"> </text>
</a>
</g>
</g>
<!-- Node14&#45;&gt;Node1 -->
<g id="edge13" class="edge">
<title>Node14&#45;&gt;Node1</title>
<path fill="none" stroke="#404040" d="M629.67,-341.65C626.04,-317.65 619.89,-282.19 611.5,-252 610.9,-249.85 610.29,-247.69 609.65,-245.51"/>
<polygon fill="none" stroke="#404040" points="609.58,-245.29 604.01,-240.71 606.1,-233.81 611.67,-238.39 609.58,-245.29"/>
<text text-anchor="middle" x="629.5" y="-255" font-family="Helvetica,sans-Serif" font-size="10.00"> &#45;isLR1</text>
</g>
<!-- Node15 -->
<g id="node15" class="node">
<title>Node15</title>
<g id="a_node15"><a xlink:title=" ">
<polygon fill="none" stroke="#bfbfbf" points="669.5,-342 669.5,-399 737.5,-399 737.5,-342 669.5,-342"/>
<text text-anchor="middle" x="703.5" y="-387" font-family="Helvetica,sans-Serif" font-size="10.00">shared_ptr&lt;</text>
<polyline fill="none" stroke="#bfbfbf" points="669.5,-380 737.5,-380 "/>
<text text-anchor="middle" x="703.5" y="-368" font-family="Helvetica,sans-Serif" font-size="10.00"> </text>
<polyline fill="none" stroke="#bfbfbf" points="669.5,-361 737.5,-361 "/>
<text text-anchor="middle" x="703.5" y="-349" font-family="Helvetica,sans-Serif" font-size="10.00"> </text>
</a>
</g>
</g>
<!-- Node15&#45;&gt;Node1 -->
<g id="edge14" class="edge">
<title>Node15&#45;&gt;Node1</title>
<path fill="none" stroke="#404040" d="M692.19,-341.86C681.97,-317.68 666.04,-281.85 649.5,-252 646.3,-246.22 642.93,-240.36 639.46,-234.48"/>
<polygon fill="none" stroke="#404040" points="639.28,-234.18 632.77,-231.1 633.11,-223.89 639.63,-226.98 639.28,-234.18"/>
<text text-anchor="middle" x="665" y="-255" font-family="Helvetica,sans-Serif" font-size="10.00"> &#45;root</text>
</g>
</g>
</svg>
