<?xml version="1.0" encoding="UTF-8" standalone="no"?>
<!DOCTYPE svg PUBLIC "-//W3C//DTD SVG 1.1//EN"
 "http://www.w3.org/Graphics/SVG/1.1/DTD/svg11.dtd">
<!-- Generated by graphviz version 2.50.0 (20211204.2007)
 -->
<!-- Title: ItemsSet::closure Pages: 1 -->
<svg width="417pt" height="104pt"
 viewBox="0.00 0.00 417.00 104.00" xmlns="http://www.w3.org/2000/svg" xmlns:xlink="http://www.w3.org/1999/xlink">
<g id="graph0" class="graph" transform="scale(1 1) rotate(0) translate(4 100)">
<title>ItemsSet::closure</title>
<!-- Node1 -->
<g id="node1" class="node">
<title>Node1</title>
<g id="a_node1"><a xlink:title="闭包">
<polygon fill="#bfbfbf" stroke="black" points="0,-38.5 0,-57.5 94,-57.5 94,-38.5 0,-38.5"/>
<text text-anchor="middle" x="47" y="-45.5" font-family="Helvetica,sans-Serif" font-size="10.00">ItemsSet::closure</text>
</a>
</g>
</g>
<!-- Node2 -->
<g id="node2" class="node">
<title>Node2</title>
<g id="a_node2"><a xlink:href="class_grammar.html#a2c8d1fdf2eef2d7ccd987fd9d3a8445f" target="_top" xlink:title=" ">
<polygon fill="none" stroke="black" points="130,-76.5 130,-95.5 262,-95.5 262,-76.5 130,-76.5"/>
<text text-anchor="middle" x="196" y="-83.5" font-family="Helvetica,sans-Serif" font-size="10.00">Grammar::findRulesScope</text>
</a>
</g>
</g>
<!-- Node1&#45;&gt;Node2 -->
<g id="edge1" class="edge">
<title>Node1&#45;&gt;Node2</title>
<path fill="none" stroke="midnightblue" d="M85.09,-57.59C104.32,-62.56 127.99,-68.68 148.43,-73.96"/>
<polygon fill="midnightblue" stroke="midnightblue" points="147.61,-77.37 158.17,-76.48 149.37,-70.59 147.61,-77.37"/>
</g>
<!-- Node3 -->
<g id="node3" class="node">
<title>Node3</title>
<g id="a_node3"><a xlink:href="class_items_set.html#ac722f837ced519f0d28ad9bcdad8c067" target="_top" xlink:title=" ">
<polygon fill="none" stroke="black" points="148.5,-38.5 148.5,-57.5 243.5,-57.5 243.5,-38.5 148.5,-38.5"/>
<text text-anchor="middle" x="196" y="-45.5" font-family="Helvetica,sans-Serif" font-size="10.00">ItemsSet::getFirst</text>
</a>
</g>
</g>
<!-- Node1&#45;&gt;Node3 -->
<g id="edge2" class="edge">
<title>Node1&#45;&gt;Node3</title>
<path fill="none" stroke="midnightblue" d="M94.11,-48C108,-48 123.41,-48 137.92,-48"/>
<polygon fill="midnightblue" stroke="midnightblue" points="138.3,-51.5 148.3,-48 138.3,-44.5 138.3,-51.5"/>
</g>
<!-- Node5 -->
<g id="node5" class="node">
<title>Node5</title>
<g id="a_node5"><a xlink:href="class_grammar.html#ae41d5ebe716d6a3f199881e8cdb2f4e9" target="_top" xlink:title=" ">
<polygon fill="none" stroke="black" points="134.5,-0.5 134.5,-19.5 257.5,-19.5 257.5,-0.5 134.5,-0.5"/>
<text text-anchor="middle" x="196" y="-7.5" font-family="Helvetica,sans-Serif" font-size="10.00">Grammar::isNonterminal</text>
</a>
</g>
</g>
<!-- Node1&#45;&gt;Node5 -->
<g id="edge4" class="edge">
<title>Node1&#45;&gt;Node5</title>
<path fill="none" stroke="midnightblue" d="M85.09,-38.41C104.32,-33.44 127.99,-27.32 148.43,-22.04"/>
<polygon fill="midnightblue" stroke="midnightblue" points="149.37,-25.41 158.17,-19.52 147.61,-18.63 149.37,-25.41"/>
</g>
<!-- Node4 -->
<g id="node4" class="node">
<title>Node4</title>
<g id="a_node4"><a xlink:href="class_grammar.html#a7e62e52a20ab66eed478cb95f3f6dedb" target="_top" xlink:title=" ">
<polygon fill="none" stroke="black" points="298,-38.5 298,-57.5 409,-57.5 409,-38.5 298,-38.5"/>
<text text-anchor="middle" x="353.5" y="-45.5" font-family="Helvetica,sans-Serif" font-size="10.00">Grammar::getFirstSet</text>
</a>
</g>
</g>
<!-- Node3&#45;&gt;Node4 -->
<g id="edge3" class="edge">
<title>Node3&#45;&gt;Node4</title>
<path fill="none" stroke="midnightblue" d="M243.66,-48C257.54,-48 273,-48 287.82,-48"/>
<polygon fill="midnightblue" stroke="midnightblue" points="287.94,-51.5 297.94,-48 287.94,-44.5 287.94,-51.5"/>
</g>
</g>
</svg>
