<?xml version="1.0" encoding="UTF-8" standalone="no"?>
<!DOCTYPE svg PUBLIC "-//W3C//DTD SVG 1.1//EN"
 "http://www.w3.org/Graphics/SVG/1.1/DTD/svg11.dtd">
<!-- Generated by graphviz version 2.50.0 (20211204.2007)
 -->
<!-- Title: Grammar::getAllFirstSet Pages: 1 -->
<svg width="276pt" height="46pt"
 viewBox="0.00 0.00 276.00 46.00" xmlns="http://www.w3.org/2000/svg" xmlns:xlink="http://www.w3.org/1999/xlink">
<g id="graph0" class="graph" transform="scale(1 1) rotate(0) translate(4 42)">
<title>Grammar::getAllFirstSet</title>
<!-- Node1 -->
<g id="node1" class="node">
<title>Node1</title>
<g id="a_node1"><a xlink:title=" ">
<polygon fill="#bfbfbf" stroke="black" points="0,-0.5 0,-19.5 122,-19.5 122,-0.5 0,-0.5"/>
<text text-anchor="middle" x="61" y="-7.5" font-family="Helvetica,sans-Serif" font-size="10.00">Grammar::getAllFirstSet</text>
</a>
</g>
</g>
<!-- Node2 -->
<g id="node2" class="node">
<title>Node2</title>
<g id="a_node2"><a xlink:href="class_grammar.html#a715baf6276249a525803c68aa1e9b70c" target="_top" xlink:title=" ">
<polygon fill="none" stroke="black" points="158,-0.5 158,-19.5 268,-19.5 268,-0.5 158,-0.5"/>
<text text-anchor="middle" x="213" y="-7.5" font-family="Helvetica,sans-Serif" font-size="10.00">Grammar::calFirstSet</text>
</a>
</g>
</g>
<!-- Node1&#45;&gt;Node2 -->
<g id="edge1" class="edge">
<title>Node1&#45;&gt;Node2</title>
<path fill="none" stroke="midnightblue" d="M122.15,-10C130.49,-10 139.09,-10 147.51,-10"/>
<polygon fill="midnightblue" stroke="midnightblue" points="147.66,-13.5 157.66,-10 147.66,-6.5 147.66,-13.5"/>
</g>
<!-- Node2&#45;&gt;Node2 -->
<g id="edge2" class="edge">
<title>Node2&#45;&gt;Node2</title>
<path fill="none" stroke="midnightblue" d="M189.57,-19.76C178.18,-28.57 185.98,-38 213,-38 230.73,-38 240.19,-33.94 241.37,-28.65"/>
<polygon fill="midnightblue" stroke="midnightblue" points="244.34,-26.8 236.43,-19.76 238.23,-30.2 244.34,-26.8"/>
</g>
</g>
</svg>
