<?xml version="1.0" encoding="UTF-8" standalone="no"?>
<!DOCTYPE svg PUBLIC "-//W3C//DTD SVG 1.1//EN"
 "http://www.w3.org/Graphics/SVG/1.1/DTD/svg11.dtd">
<!-- Generated by graphviz version 2.50.0 (20211204.2007)
 -->
<!-- Title: Node Pages: 1 -->
<svg width="138pt" height="391pt"
 viewBox="0.00 0.00 138.00 391.00" xmlns="http://www.w3.org/2000/svg" xmlns:xlink="http://www.w3.org/1999/xlink">
<g id="graph0" class="graph" transform="scale(1 1) rotate(0) translate(4 387)">
<title>Node</title>
<!-- Node1 -->
<g id="node1" class="node">
<title>Node1</title>
<g id="a_node1"><a xlink:title="语法生成树的节点">
<polygon fill="#bfbfbf" stroke="black" points="0,-0.5 0,-255.5 118,-255.5 118,-0.5 0,-0.5"/>
<text text-anchor="middle" x="59" y="-243.5" font-family="Helvetica,sans-Serif" font-size="10.00">Node</text>
<polyline fill="none" stroke="black" points="0,-236.5 118,-236.5 "/>
<text text-anchor="middle" x="59" y="-224.5" font-family="Helvetica,sans-Serif" font-size="10.00"> </text>
<polyline fill="none" stroke="black" points="0,-217.5 118,-217.5 "/>
<text text-anchor="start" x="8" y="-205.5" font-family="Helvetica,sans-Serif" font-size="10.00">+ Node(string c)</text>
<text text-anchor="start" x="8" y="-194.5" font-family="Helvetica,sans-Serif" font-size="10.00">+ Node(string c, Node</text>
<text text-anchor="start" x="8" y="-183.5" font-family="Helvetica,sans-Serif" font-size="10.00"> &amp;p, Node &amp;l, Node &amp;r)</text>
<text text-anchor="start" x="8" y="-172.5" font-family="Helvetica,sans-Serif" font-size="10.00">+ shared_ptr&lt; Node &gt;</text>
<text text-anchor="start" x="8" y="-161.5" font-family="Helvetica,sans-Serif" font-size="10.00"> createParent(shared</text>
<text text-anchor="start" x="8" y="-150.5" font-family="Helvetica,sans-Serif" font-size="10.00">_ptr&lt; Node &gt; node)</text>
<text text-anchor="start" x="8" y="-139.5" font-family="Helvetica,sans-Serif" font-size="10.00">+ shared_ptr&lt; Node &gt;</text>
<text text-anchor="start" x="8" y="-128.5" font-family="Helvetica,sans-Serif" font-size="10.00"> createChild(shared</text>
<text text-anchor="start" x="8" y="-117.5" font-family="Helvetica,sans-Serif" font-size="10.00">_ptr&lt; Node &gt; node)</text>
<text text-anchor="start" x="8" y="-106.5" font-family="Helvetica,sans-Serif" font-size="10.00">+ shared_ptr&lt; Node &gt;</text>
<text text-anchor="start" x="8" y="-95.5" font-family="Helvetica,sans-Serif" font-size="10.00"> createSibling(shared</text>
<text text-anchor="start" x="8" y="-84.5" font-family="Helvetica,sans-Serif" font-size="10.00">_ptr&lt; Node &gt; node)</text>
<text text-anchor="start" x="8" y="-73.5" font-family="Helvetica,sans-Serif" font-size="10.00">+ shared_ptr&lt; Node &gt;</text>
<text text-anchor="start" x="8" y="-62.5" font-family="Helvetica,sans-Serif" font-size="10.00"> getChild()</text>
<text text-anchor="start" x="8" y="-51.5" font-family="Helvetica,sans-Serif" font-size="10.00">+ shared_ptr&lt; Node &gt;</text>
<text text-anchor="start" x="8" y="-40.5" font-family="Helvetica,sans-Serif" font-size="10.00"> getSibling()</text>
<text text-anchor="start" x="8" y="-29.5" font-family="Helvetica,sans-Serif" font-size="10.00">+ shared_ptr&lt; Node &gt;</text>
<text text-anchor="start" x="8" y="-18.5" font-family="Helvetica,sans-Serif" font-size="10.00"> getParent()</text>
<text text-anchor="start" x="8" y="-7.5" font-family="Helvetica,sans-Serif" font-size="10.00">+ void printSymbol()</text>
</a>
</g>
</g>
<!-- Node2 -->
<g id="node2" class="node">
<title>Node2</title>
<g id="a_node2"><a xlink:title=" ">
<polygon fill="none" stroke="#bfbfbf" points="2.5,-325.5 2.5,-382.5 43.5,-382.5 43.5,-325.5 2.5,-325.5"/>
<text text-anchor="middle" x="23" y="-370.5" font-family="Helvetica,sans-Serif" font-size="10.00">string</text>
<polyline fill="none" stroke="#bfbfbf" points="2.5,-363.5 43.5,-363.5 "/>
<text text-anchor="middle" x="23" y="-351.5" font-family="Helvetica,sans-Serif" font-size="10.00"> </text>
<polyline fill="none" stroke="#bfbfbf" points="2.5,-344.5 43.5,-344.5 "/>
<text text-anchor="middle" x="23" y="-332.5" font-family="Helvetica,sans-Serif" font-size="10.00"> </text>
</a>
</g>
</g>
<!-- Node2&#45;&gt;Node1 -->
<g id="edge1" class="edge">
<title>Node2&#45;&gt;Node1</title>
<path fill="none" stroke="#404040" d="M27.49,-325.08C29.96,-309.67 33.24,-289.26 36.75,-267.43"/>
<polygon fill="none" stroke="#404040" points="36.76,-267.39 33.76,-260.83 38.66,-255.54 41.66,-262.1 36.76,-267.39"/>
<text text-anchor="middle" x="54" y="-288" font-family="Helvetica,sans-Serif" font-size="10.00"> &#45;symbol</text>
</g>
<!-- Node3 -->
<g id="node3" class="node">
<title>Node3</title>
<g id="a_node3"><a xlink:title=" ">
<polygon fill="none" stroke="#bfbfbf" points="62,-325.5 62,-382.5 130,-382.5 130,-325.5 62,-325.5"/>
<text text-anchor="middle" x="96" y="-370.5" font-family="Helvetica,sans-Serif" font-size="10.00">shared_ptr&lt;</text>
<polyline fill="none" stroke="#bfbfbf" points="62,-363.5 130,-363.5 "/>
<text text-anchor="middle" x="96" y="-351.5" font-family="Helvetica,sans-Serif" font-size="10.00"> </text>
<polyline fill="none" stroke="#bfbfbf" points="62,-344.5 130,-344.5 "/>
<text text-anchor="middle" x="96" y="-332.5" font-family="Helvetica,sans-Serif" font-size="10.00"> </text>
</a>
</g>
</g>
<!-- Node3&#45;&gt;Node1 -->
<g id="edge2" class="edge">
<title>Node3&#45;&gt;Node1</title>
<path fill="none" stroke="#404040" d="M91.39,-325.08C88.84,-309.67 85.47,-289.26 81.87,-267.43"/>
<polygon fill="none" stroke="#404040" points="81.86,-267.38 76.93,-262.11 79.9,-255.54 84.83,-260.81 81.86,-267.38"/>
<text text-anchor="middle" x="103.5" y="-299" font-family="Helvetica,sans-Serif" font-size="10.00"> &#45;child</text>
<text text-anchor="middle" x="103.5" y="-288" font-family="Helvetica,sans-Serif" font-size="10.00">&#45;parent</text>
<text text-anchor="middle" x="103.5" y="-277" font-family="Helvetica,sans-Serif" font-size="10.00">&#45;sibling</text>
</g>
</g>
</svg>
