<?xml version="1.0" encoding="UTF-8" standalone="no"?>
<!DOCTYPE svg PUBLIC "-//W3C//DTD SVG 1.1//EN"
 "http://www.w3.org/Graphics/SVG/1.1/DTD/svg11.dtd">
<!-- Generated by graphviz version 2.50.0 (20211204.2007)
 -->
<!-- Title: Node Pages: 1 -->
<svg width="172pt" height="497pt"
 viewBox="0.00 0.00 171.50 497.00" xmlns="http://www.w3.org/2000/svg" xmlns:xlink="http://www.w3.org/1999/xlink">
<g id="graph0" class="graph" transform="scale(1 1) rotate(0) translate(4 493)">
<title>Node</title>
<!-- Node1 -->
<g id="node1" class="node">
<title>Node1</title>
<g id="a_node1"><a xlink:title="语法生成树的节点">
<polygon fill="#bfbfbf" stroke="black" points="39.5,-0.5 39.5,-255.5 157.5,-255.5 157.5,-0.5 39.5,-0.5"/>
<text text-anchor="middle" x="98.5" y="-243.5" font-family="Helvetica,sans-Serif" font-size="10.00">Node</text>
<polyline fill="none" stroke="black" points="39.5,-236.5 157.5,-236.5 "/>
<text text-anchor="middle" x="98.5" y="-224.5" font-family="Helvetica,sans-Serif" font-size="10.00"> </text>
<polyline fill="none" stroke="black" points="39.5,-217.5 157.5,-217.5 "/>
<text text-anchor="start" x="47.5" y="-205.5" font-family="Helvetica,sans-Serif" font-size="10.00">+ Node(string c)</text>
<text text-anchor="start" x="47.5" y="-194.5" font-family="Helvetica,sans-Serif" font-size="10.00">+ Node(string c, Node</text>
<text text-anchor="start" x="47.5" y="-183.5" font-family="Helvetica,sans-Serif" font-size="10.00"> &amp;p, Node &amp;l, Node &amp;r)</text>
<text text-anchor="start" x="47.5" y="-172.5" font-family="Helvetica,sans-Serif" font-size="10.00">+ shared_ptr&lt; Node &gt;</text>
<text text-anchor="start" x="47.5" y="-161.5" font-family="Helvetica,sans-Serif" font-size="10.00"> createParent(shared</text>
<text text-anchor="start" x="47.5" y="-150.5" font-family="Helvetica,sans-Serif" font-size="10.00">_ptr&lt; Node &gt; node)</text>
<text text-anchor="start" x="47.5" y="-139.5" font-family="Helvetica,sans-Serif" font-size="10.00">+ shared_ptr&lt; Node &gt;</text>
<text text-anchor="start" x="47.5" y="-128.5" font-family="Helvetica,sans-Serif" font-size="10.00"> createChild(shared</text>
<text text-anchor="start" x="47.5" y="-117.5" font-family="Helvetica,sans-Serif" font-size="10.00">_ptr&lt; Node &gt; node)</text>
<text text-anchor="start" x="47.5" y="-106.5" font-family="Helvetica,sans-Serif" font-size="10.00">+ shared_ptr&lt; Node &gt;</text>
<text text-anchor="start" x="47.5" y="-95.5" font-family="Helvetica,sans-Serif" font-size="10.00"> createSibling(shared</text>
<text text-anchor="start" x="47.5" y="-84.5" font-family="Helvetica,sans-Serif" font-size="10.00">_ptr&lt; Node &gt; node)</text>
<text text-anchor="start" x="47.5" y="-73.5" font-family="Helvetica,sans-Serif" font-size="10.00">+ shared_ptr&lt; Node &gt;</text>
<text text-anchor="start" x="47.5" y="-62.5" font-family="Helvetica,sans-Serif" font-size="10.00"> getChild()</text>
<text text-anchor="start" x="47.5" y="-51.5" font-family="Helvetica,sans-Serif" font-size="10.00">+ shared_ptr&lt; Node &gt;</text>
<text text-anchor="start" x="47.5" y="-40.5" font-family="Helvetica,sans-Serif" font-size="10.00"> getSibling()</text>
<text text-anchor="start" x="47.5" y="-29.5" font-family="Helvetica,sans-Serif" font-size="10.00">+ shared_ptr&lt; Node &gt;</text>
<text text-anchor="start" x="47.5" y="-18.5" font-family="Helvetica,sans-Serif" font-size="10.00"> getParent()</text>
<text text-anchor="start" x="47.5" y="-7.5" font-family="Helvetica,sans-Serif" font-size="10.00">+ void printSymbol()</text>
</a>
</g>
</g>
<!-- Node2 -->
<g id="node2" class="node">
<title>Node2</title>
<g id="a_node2"><a xlink:title=" ">
<polygon fill="none" stroke="#bfbfbf" points="17.5,-325.5 17.5,-382.5 77.5,-382.5 77.5,-325.5 17.5,-325.5"/>
<text text-anchor="middle" x="47.5" y="-370.5" font-family="Helvetica,sans-Serif" font-size="10.00">std::string</text>
<polyline fill="none" stroke="#bfbfbf" points="17.5,-363.5 77.5,-363.5 "/>
<text text-anchor="middle" x="47.5" y="-351.5" font-family="Helvetica,sans-Serif" font-size="10.00"> </text>
<polyline fill="none" stroke="#bfbfbf" points="17.5,-344.5 77.5,-344.5 "/>
<text text-anchor="middle" x="47.5" y="-332.5" font-family="Helvetica,sans-Serif" font-size="10.00"> </text>
</a>
</g>
</g>
<!-- Node2&#45;&gt;Node1 -->
<g id="edge1" class="edge">
<title>Node2&#45;&gt;Node1</title>
<path fill="none" stroke="#404040" d="M53.86,-325.08C57.36,-309.67 62.01,-289.26 66.98,-267.43"/>
<polygon fill="none" stroke="#404040" points="67.03,-267.24 64.46,-260.5 69.69,-255.54 72.26,-262.28 67.03,-267.24"/>
<text text-anchor="middle" x="84.5" y="-288" font-family="Helvetica,sans-Serif" font-size="10.00"> &#45;symbol</text>
</g>
<!-- Node3 -->
<g id="node3" class="node">
<title>Node3</title>
<g id="a_node3"><a xlink:title=" ">
<polygon fill="none" stroke="#bfbfbf" points="0,-420.5 0,-488.5 95,-488.5 95,-420.5 0,-420.5"/>
<text text-anchor="start" x="8" y="-476.5" font-family="Helvetica,sans-Serif" font-size="10.00">std::basic_string&lt;</text>
<text text-anchor="middle" x="47.5" y="-465.5" font-family="Helvetica,sans-Serif" font-size="10.00"> Char &gt;</text>
<polyline fill="none" stroke="#bfbfbf" points="0,-458.5 95,-458.5 "/>
<text text-anchor="middle" x="47.5" y="-446.5" font-family="Helvetica,sans-Serif" font-size="10.00"> </text>
<polyline fill="none" stroke="#bfbfbf" points="0,-439.5 95,-439.5 "/>
<text text-anchor="middle" x="47.5" y="-427.5" font-family="Helvetica,sans-Serif" font-size="10.00"> </text>
</a>
</g>
</g>
<!-- Node3&#45;&gt;Node2 -->
<g id="edge2" class="edge">
<title>Node3&#45;&gt;Node2</title>
<path fill="none" stroke="midnightblue" d="M47.5,-410.38C47.5,-400.94 47.5,-391.2 47.5,-382.57"/>
<polygon fill="none" stroke="midnightblue" points="44,-410.43 47.5,-420.43 51,-410.43 44,-410.43"/>
</g>
<!-- Node4 -->
<g id="node4" class="node">
<title>Node4</title>
<g id="a_node4"><a xlink:title=" ">
<polygon fill="none" stroke="#bfbfbf" points="95.5,-325.5 95.5,-382.5 163.5,-382.5 163.5,-325.5 95.5,-325.5"/>
<text text-anchor="middle" x="129.5" y="-370.5" font-family="Helvetica,sans-Serif" font-size="10.00">shared_ptr&lt;</text>
<polyline fill="none" stroke="#bfbfbf" points="95.5,-363.5 163.5,-363.5 "/>
<text text-anchor="middle" x="129.5" y="-351.5" font-family="Helvetica,sans-Serif" font-size="10.00"> </text>
<polyline fill="none" stroke="#bfbfbf" points="95.5,-344.5 163.5,-344.5 "/>
<text text-anchor="middle" x="129.5" y="-332.5" font-family="Helvetica,sans-Serif" font-size="10.00"> </text>
</a>
</g>
</g>
<!-- Node4&#45;&gt;Node1 -->
<g id="edge3" class="edge">
<title>Node4&#45;&gt;Node1</title>
<path fill="none" stroke="#404040" d="M125.64,-325.08C123.5,-309.67 120.68,-289.26 117.66,-267.43"/>
<polygon fill="none" stroke="#404040" points="117.66,-267.42 112.87,-262.03 116.01,-255.54 120.8,-260.93 117.66,-267.42"/>
<text text-anchor="middle" x="138" y="-299" font-family="Helvetica,sans-Serif" font-size="10.00"> &#45;child</text>
<text text-anchor="middle" x="138" y="-288" font-family="Helvetica,sans-Serif" font-size="10.00">&#45;parent</text>
<text text-anchor="middle" x="138" y="-277" font-family="Helvetica,sans-Serif" font-size="10.00">&#45;sibling</text>
</g>
</g>
</svg>
