<?xml version="1.0" encoding="UTF-8" standalone="no"?>
<!DOCTYPE svg PUBLIC "-//W3C//DTD SVG 1.1//EN"
 "http://www.w3.org/Graphics/SVG/1.1/DTD/svg11.dtd">
<!-- Generated by graphviz version 2.50.0 (20211204.2007)
 -->
<!-- Title: Grammar Pages: 1 -->
<!--zoomable 441 -->
<svg id="main" version="1.1" xmlns="http://www.w3.org/2000/svg" xmlns:xlink="http://www.w3.org/1999/xlink" xml:space="preserve" onload="init(evt)">
<style type="text/css"><![CDATA[
.edge:hover path { stroke: red; }
.edge:hover polygon { stroke: red; fill: red; }
]]></style>
<script type="text/javascript"><![CDATA[
var edges = document.getElementsByTagName('g');
if (edges && edges.length) {
  for (var i=0;i<edges.length;i++) {
    if (edges[i].id.substr(0,4)=='edge') {
      edges[i].setAttribute('class','edge');
    }
  }
}
]]></script>
        <defs>
                <circle id="rim" cx="0" cy="0" r="7"/>
                <circle id="rim2" cx="0" cy="0" r="3.5"/>
                <g id="zoomPlus">
                        <use xlink:href="#rim" fill="#404040">
                                <set attributeName="fill" to="#808080" begin="zoomplus.mouseover" end="zoomplus.mouseout"/>
                        </use>
                        <path d="M-4,0h8M0,-4v8" fill="none" stroke="white" stroke-width="1.5" pointer-events="none"/>
                </g>
                <g id="zoomMin">
                        <use xlink:href="#rim" fill="#404040">
                                <set attributeName="fill" to="#808080" begin="zoomminus.mouseover" end="zoomminus.mouseout"/>
                        </use>
                        <path d="M-4,0h8" fill="none" stroke="white" stroke-width="1.5" pointer-events="none"/>
                </g>
                <g id="dirArrow">
                        <path fill="none" stroke="white" stroke-width="1.5" d="M0,-3.0v7 M-2.5,-0.5L0,-3.0L2.5,-0.5"/>
                </g>
               <g id="resetDef">
                       <use xlink:href="#rim2" fill="#404040">
                               <set attributeName="fill" to="#808080" begin="reset.mouseover" end="reset.mouseout"/>
                       </use>
               </g>
        </defs>

<script type="text/javascript">
var viewWidth = 532;
var viewHeight = 441;
var sectionId = 'dynsection-1';
</script>
<script xlink:href="svgpan.js"/>
<svg id="graph" class="graph">
<g id="viewport">
<title>Grammar</title>
<!-- Node1 -->
<g id="node1" class="node">
<title>Node1</title>
<g id="a_node1"><a xlink:title=" ">
<polygon fill="#bfbfbf" stroke="black" points="137,-0.5 137,-178.5 282,-178.5 282,-0.5 137,-0.5"/>
<text text-anchor="middle" x="209.5" y="-166.5" font-family="Helvetica,sans-Serif" font-size="10.00">Grammar</text>
<polyline fill="none" stroke="black" points="137,-159.5 282,-159.5 "/>
<text text-anchor="middle" x="209.5" y="-147.5" font-family="Helvetica,sans-Serif" font-size="10.00"> </text>
<polyline fill="none" stroke="black" points="137,-140.5 282,-140.5 "/>
<text text-anchor="start" x="145" y="-128.5" font-family="Helvetica,sans-Serif" font-size="10.00">+ Grammar(ifstream &amp;in)</text>
<text text-anchor="start" x="145" y="-117.5" font-family="Helvetica,sans-Serif" font-size="10.00">+ bool isNonterminal</text>
<text text-anchor="start" x="145" y="-106.5" font-family="Helvetica,sans-Serif" font-size="10.00">(const string &amp;s) const</text>
<text text-anchor="start" x="145" y="-95.5" font-family="Helvetica,sans-Serif" font-size="10.00">+ pair&lt; RULE::const_iterator,</text>
<text text-anchor="start" x="145" y="-84.5" font-family="Helvetica,sans-Serif" font-size="10.00"> RULE::const_iterator &gt;</text>
<text text-anchor="start" x="145" y="-73.5" font-family="Helvetica,sans-Serif" font-size="10.00"> findRulesScope(const string</text>
<text text-anchor="start" x="145" y="-62.5" font-family="Helvetica,sans-Serif" font-size="10.00"> &amp;symbol) const</text>
<text text-anchor="start" x="145" y="-51.5" font-family="Helvetica,sans-Serif" font-size="10.00">+ void getAllFirstSet()</text>
<text text-anchor="start" x="145" y="-40.5" font-family="Helvetica,sans-Serif" font-size="10.00">+ set&lt; string &gt; &amp; getFirst</text>
<text text-anchor="start" x="145" y="-29.5" font-family="Helvetica,sans-Serif" font-size="10.00">Set(const string &amp;symbol)</text>
<text text-anchor="start" x="145" y="-18.5" font-family="Helvetica,sans-Serif" font-size="10.00">+ set&lt; string &gt; calFirstSet</text>
<text text-anchor="start" x="145" y="-7.5" font-family="Helvetica,sans-Serif" font-size="10.00">(const string &amp;symbol)</text>
</a>
</g>
</g>
<!-- Node2 -->
<g id="node2" class="node">
<title>Node2</title>
<g id="a_node2"><a xlink:title=" ">
<polygon fill="none" stroke="#bfbfbf" points="0,-254 0,-311 29,-311 29,-254 0,-254"/>
<text text-anchor="middle" x="14.5" y="-299" font-family="Helvetica,sans-Serif" font-size="10.00">int</text>
<polyline fill="none" stroke="#bfbfbf" points="0,-292 29,-292 "/>
<text text-anchor="middle" x="14.5" y="-280" font-family="Helvetica,sans-Serif" font-size="10.00"> </text>
<polyline fill="none" stroke="#bfbfbf" points="0,-273 29,-273 "/>
<text text-anchor="middle" x="14.5" y="-261" font-family="Helvetica,sans-Serif" font-size="10.00"> </text>
</a>
</g>
</g>
<!-- Node2&#45;&gt;Node1 -->
<g id="edge1" class="edge">
<title>Node2&#45;&gt;Node1</title>
<path fill="none" stroke="#404040" d="M14.49,-253.77C15.75,-236.1 19.84,-213.5 31.5,-197 54.75,-164.09 91.68,-139.6 125.89,-122.46"/>
<polygon fill="none" stroke="#404040" points="126.08,-122.37 129.74,-116.16 136.88,-117.16 133.22,-123.37 126.08,-122.37"/>
<text text-anchor="middle" x="72.5" y="-222" font-family="Helvetica,sans-Serif" font-size="10.00"> #nonTerminalNum</text>
<text text-anchor="middle" x="72.5" y="-211" font-family="Helvetica,sans-Serif" font-size="10.00">#rulesNum</text>
<text text-anchor="middle" x="72.5" y="-200" font-family="Helvetica,sans-Serif" font-size="10.00">#terminalNum</text>
</g>
<!-- Node3 -->
<g id="node3" class="node">
<title>Node3</title>
<g id="a_node3"><a xlink:title=" ">
<polygon fill="none" stroke="#bfbfbf" points="50.5,-254 50.5,-311 122.5,-311 122.5,-254 50.5,-254"/>
<text text-anchor="middle" x="86.5" y="-299" font-family="Helvetica,sans-Serif" font-size="10.00">set&lt; string &gt;</text>
<polyline fill="none" stroke="#bfbfbf" points="50.5,-292 122.5,-292 "/>
<text text-anchor="middle" x="86.5" y="-280" font-family="Helvetica,sans-Serif" font-size="10.00"> </text>
<polyline fill="none" stroke="#bfbfbf" points="50.5,-273 122.5,-273 "/>
<text text-anchor="middle" x="86.5" y="-261" font-family="Helvetica,sans-Serif" font-size="10.00"> </text>
</a>
</g>
</g>
<!-- Node3&#45;&gt;Node1 -->
<g id="edge2" class="edge">
<title>Node3&#45;&gt;Node1</title>
<path fill="none" stroke="#404040" d="M102.26,-253.82C111.88,-237.18 124.59,-215.68 136.5,-197 138.25,-194.26 140.03,-191.49 141.84,-188.7"/>
<polygon fill="none" stroke="#404040" points="141.92,-188.57 141.86,-181.36 148.49,-178.53 148.56,-185.74 141.92,-188.57"/>
<text text-anchor="middle" x="170" y="-216.5" font-family="Helvetica,sans-Serif" font-size="10.00"> #nonTerminals</text>
<text text-anchor="middle" x="170" y="-205.5" font-family="Helvetica,sans-Serif" font-size="10.00">#terminals</text>
</g>
<!-- Node4 -->
<g id="node4" class="node">
<title>Node4</title>
<g id="a_node4"><a xlink:title=" ">
<polygon fill="none" stroke="#bfbfbf" points="71.5,-375.5 71.5,-432.5 101.5,-432.5 101.5,-375.5 71.5,-375.5"/>
<text text-anchor="middle" x="86.5" y="-420.5" font-family="Helvetica,sans-Serif" font-size="10.00">set</text>
<polyline fill="none" stroke="#bfbfbf" points="71.5,-413.5 101.5,-413.5 "/>
<text text-anchor="middle" x="86.5" y="-401.5" font-family="Helvetica,sans-Serif" font-size="10.00"> </text>
<polyline fill="none" stroke="#bfbfbf" points="71.5,-394.5 101.5,-394.5 "/>
<text text-anchor="middle" x="86.5" y="-382.5" font-family="Helvetica,sans-Serif" font-size="10.00"> </text>
</a>
</g>
</g>
<!-- Node4&#45;&gt;Node3 -->
<g id="edge3" class="edge">
<title>Node4&#45;&gt;Node3</title>
<path fill="none" stroke="orange" d="M86.5,-364.83C86.5,-347.35 86.5,-327.03 86.5,-311.07"/>
<polygon fill="orange" stroke="orange" points="83,-365.28 86.5,-375.28 90,-365.28 83,-365.28"/>
<text text-anchor="middle" x="109.5" y="-343.5" font-family="Helvetica,sans-Serif" font-size="10.00"> &lt; string &gt;</text>
</g>
<!-- Node5 -->
<g id="node5" class="node">
<title>Node5</title>
<g id="a_node5"><a xlink:title=" ">
<polygon fill="none" stroke="#bfbfbf" points="141,-248.5 141,-316.5 270,-316.5 270,-248.5 141,-248.5"/>
<text text-anchor="start" x="149" y="-304.5" font-family="Helvetica,sans-Serif" font-size="10.00">multimap&lt; string, pair</text>
<text text-anchor="middle" x="205.5" y="-293.5" font-family="Helvetica,sans-Serif" font-size="10.00">&lt; vector&lt; string &gt;, int &gt; &gt;</text>
<polyline fill="none" stroke="#bfbfbf" points="141,-286.5 270,-286.5 "/>
<text text-anchor="middle" x="205.5" y="-274.5" font-family="Helvetica,sans-Serif" font-size="10.00"> </text>
<polyline fill="none" stroke="#bfbfbf" points="141,-267.5 270,-267.5 "/>
<text text-anchor="middle" x="205.5" y="-255.5" font-family="Helvetica,sans-Serif" font-size="10.00"> </text>
</a>
</g>
</g>
<!-- Node5&#45;&gt;Node1 -->
<g id="edge4" class="edge">
<title>Node5&#45;&gt;Node1</title>
<path fill="none" stroke="#404040" d="M206.2,-248.23C206.54,-232.06 206.96,-211.67 207.4,-190.97"/>
<polygon fill="none" stroke="#404040" points="207.4,-190.77 203.53,-184.69 207.65,-178.78 211.52,-184.86 207.4,-190.77"/>
<text text-anchor="middle" x="222.5" y="-211" font-family="Helvetica,sans-Serif" font-size="10.00"> #rules</text>
</g>
<!-- Node6 -->
<g id="node6" class="node">
<title>Node6</title>
<g id="a_node6"><a xlink:title=" ">
<polygon fill="none" stroke="#bfbfbf" points="177.5,-375.5 177.5,-432.5 233.5,-432.5 233.5,-375.5 177.5,-375.5"/>
<text text-anchor="middle" x="205.5" y="-420.5" font-family="Helvetica,sans-Serif" font-size="10.00">multimap</text>
<polyline fill="none" stroke="#bfbfbf" points="177.5,-413.5 233.5,-413.5 "/>
<text text-anchor="middle" x="205.5" y="-401.5" font-family="Helvetica,sans-Serif" font-size="10.00"> </text>
<polyline fill="none" stroke="#bfbfbf" points="177.5,-394.5 233.5,-394.5 "/>
<text text-anchor="middle" x="205.5" y="-382.5" font-family="Helvetica,sans-Serif" font-size="10.00"> </text>
</a>
</g>
</g>
<!-- Node6&#45;&gt;Node5 -->
<g id="edge5" class="edge">
<title>Node6&#45;&gt;Node5</title>
<path fill="none" stroke="orange" d="M205.5,-364.95C205.5,-349.4 205.5,-331.58 205.5,-316.59"/>
<polygon fill="orange" stroke="orange" points="202,-365.28 205.5,-375.28 209,-365.28 202,-365.28"/>
<text text-anchor="start" x="205.5" y="-349" font-family="Helvetica,sans-Serif" font-size="10.00"> &lt; string, pair&lt; vector</text>
<text text-anchor="middle" x="252.5" y="-338" font-family="Helvetica,sans-Serif" font-size="10.00">&lt; string &gt;, int &gt; &gt;</text>
</g>
<!-- Node7 -->
<g id="node7" class="node">
<title>Node7</title>
<g id="a_node7"><a xlink:title=" ">
<polygon fill="none" stroke="#bfbfbf" points="288,-254 288,-311 329,-311 329,-254 288,-254"/>
<text text-anchor="middle" x="308.5" y="-299" font-family="Helvetica,sans-Serif" font-size="10.00">string</text>
<polyline fill="none" stroke="#bfbfbf" points="288,-292 329,-292 "/>
<text text-anchor="middle" x="308.5" y="-280" font-family="Helvetica,sans-Serif" font-size="10.00"> </text>
<polyline fill="none" stroke="#bfbfbf" points="288,-273 329,-273 "/>
<text text-anchor="middle" x="308.5" y="-261" font-family="Helvetica,sans-Serif" font-size="10.00"> </text>
</a>
</g>
</g>
<!-- Node7&#45;&gt;Node1 -->
<g id="edge6" class="edge">
<title>Node7&#45;&gt;Node1</title>
<path fill="none" stroke="#404040" d="M294.1,-253.73C285.18,-236.5 273.11,-213.22 260.88,-189.64"/>
<polygon fill="none" stroke="#404040" points="260.79,-189.46 254.48,-185.97 255.27,-178.8 261.58,-182.29 260.79,-189.46"/>
<text text-anchor="middle" x="310" y="-211" font-family="Helvetica,sans-Serif" font-size="10.00"> #startSymbol</text>
</g>
<!-- Node8 -->
<g id="node8" class="node">
<title>Node8</title>
<g id="a_node8"><a xlink:title=" ">
<polygon fill="none" stroke="#bfbfbf" points="347,-254 347,-311 486,-311 486,-254 347,-254"/>
<text text-anchor="middle" x="416.5" y="-299" font-family="Helvetica,sans-Serif" font-size="10.00">map&lt; string, set&lt; string &gt; &gt;</text>
<polyline fill="none" stroke="#bfbfbf" points="347,-292 486,-292 "/>
<text text-anchor="middle" x="416.5" y="-280" font-family="Helvetica,sans-Serif" font-size="10.00"> </text>
<polyline fill="none" stroke="#bfbfbf" points="347,-273 486,-273 "/>
<text text-anchor="middle" x="416.5" y="-261" font-family="Helvetica,sans-Serif" font-size="10.00"> </text>
</a>
</g>
</g>
<!-- Node8&#45;&gt;Node1 -->
<g id="edge7" class="edge">
<title>Node8&#45;&gt;Node1</title>
<path fill="none" stroke="#404040" d="M395.09,-253.65C381.4,-236.56 362.83,-214.65 344.5,-197 328.26,-181.36 309.86,-165.68 291.97,-151.35"/>
<polygon fill="none" stroke="#404040" points="291.52,-150.99 284.33,-150.39 282.11,-143.53 289.3,-144.12 291.52,-150.99"/>
<text text-anchor="middle" x="394.5" y="-211" font-family="Helvetica,sans-Serif" font-size="10.00"> #firstSet</text>
</g>
<!-- Node9 -->
<g id="node9" class="node">
<title>Node9</title>
<g id="a_node9"><a xlink:title=" ">
<polygon fill="none" stroke="#bfbfbf" points="399,-375.5 399,-432.5 434,-432.5 434,-375.5 399,-375.5"/>
<text text-anchor="middle" x="416.5" y="-420.5" font-family="Helvetica,sans-Serif" font-size="10.00">map</text>
<polyline fill="none" stroke="#bfbfbf" points="399,-413.5 434,-413.5 "/>
<text text-anchor="middle" x="416.5" y="-401.5" font-family="Helvetica,sans-Serif" font-size="10.00"> </text>
<polyline fill="none" stroke="#bfbfbf" points="399,-394.5 434,-394.5 "/>
<text text-anchor="middle" x="416.5" y="-382.5" font-family="Helvetica,sans-Serif" font-size="10.00"> </text>
</a>
</g>
</g>
<!-- Node9&#45;&gt;Node8 -->
<g id="edge8" class="edge">
<title>Node9&#45;&gt;Node8</title>
<path fill="none" stroke="orange" d="M416.5,-364.83C416.5,-347.35 416.5,-327.03 416.5,-311.07"/>
<polygon fill="orange" stroke="orange" points="413,-365.28 416.5,-375.28 420,-365.28 413,-365.28"/>
<text text-anchor="middle" x="470" y="-343.5" font-family="Helvetica,sans-Serif" font-size="10.00"> &lt; string, set&lt; string &gt; &gt;</text>
</g>
</g>
</svg>
        <g id="navigator" transform="translate(0 0)" fill="#404254">
                <rect fill="#f2f5e9" fill-opacity="0.5" stroke="#606060" stroke-width=".5" x="0" y="0" width="60" height="60"/>
                <use id="zoomplus" xlink:href="#zoomPlus" x="17" y="9" onmousedown="handleZoom(evt,'in')"/>
                <use id="zoomminus" xlink:href="#zoomMin" x="42" y="9" onmousedown="handleZoom(evt,'out')"/>
                <use id="reset" xlink:href="#resetDef" x="30" y="36" onmousedown="handleReset()"/>
                <g id="arrowUp" xlink:href="#dirArrow" transform="translate(30 24)" onmousedown="handlePan(0,-1)">
                  <use xlink:href="#rim" fill="#404040">
                        <set attributeName="fill" to="#808080" begin="arrowUp.mouseover" end="arrowUp.mouseout"/>
                  </use>
                  <path fill="none" stroke="white" stroke-width="1.5" d="M0,-3.0v7 M-2.5,-0.5L0,-3.0L2.5,-0.5"/>
                </g>
                <g id="arrowRight" xlink:href="#dirArrow" transform="rotate(90) translate(36 -43)" onmousedown="handlePan(1,0)">
                  <use xlink:href="#rim" fill="#404040">
                        <set attributeName="fill" to="#808080" begin="arrowRight.mouseover" end="arrowRight.mouseout"/>
                  </use>
                  <path fill="none" stroke="white" stroke-width="1.5" d="M0,-3.0v7 M-2.5,-0.5L0,-3.0L2.5,-0.5"/>
                </g>
                <g id="arrowDown" xlink:href="#dirArrow" transform="rotate(180) translate(-30 -48)" onmousedown="handlePan(0,1)">
                  <use xlink:href="#rim" fill="#404040">
                        <set attributeName="fill" to="#808080" begin="arrowDown.mouseover" end="arrowDown.mouseout"/>
                  </use>
                  <path fill="none" stroke="white" stroke-width="1.5" d="M0,-3.0v7 M-2.5,-0.5L0,-3.0L2.5,-0.5"/>
                </g>
                <g id="arrowLeft" xlink:href="#dirArrow" transform="rotate(270) translate(-36 17)" onmousedown="handlePan(-1,0)">
                  <use xlink:href="#rim" fill="#404040">
                        <set attributeName="fill" to="#808080" begin="arrowLeft.mouseover" end="arrowLeft.mouseout"/>
                  </use>
                  <path fill="none" stroke="white" stroke-width="1.5" d="M0,-3.0v7 M-2.5,-0.5L0,-3.0L2.5,-0.5"/>
                </g>
        </g>
        <svg viewBox="0 0 15 15" width="100%" height="30px" preserveAspectRatio="xMaxYMin meet">
         <g id="arrow_out" transform="scale(0.3 0.3)">
          <a xlink:href="class_grammar__coll__graph_org.svg" target="_base">
           <rect id="button" ry="5" rx="5" y="6" x="6" height="38" width="38"
                fill="#f2f5e9" fill-opacity="0.5" stroke="#606060" stroke-width="1.0"/>
           <path id="arrow"
             d="M 11.500037,31.436501 C 11.940474,20.09759 22.043105,11.32322 32.158766,21.979434 L 37.068811,17.246167 C 37.068811,17.246167 37.088388,32 37.088388,32 L 22.160133,31.978069 C 22.160133,31.978069 26.997745,27.140456 26.997745,27.140456 C 18.528582,18.264221 13.291696,25.230495 11.500037,31.436501 z"
             style="fill:#404040;"/>
          </a>
         </g>
        </svg>
</svg>
