<?xml version="1.0" encoding="UTF-8" standalone="no"?>
<!DOCTYPE svg PUBLIC "-//W3C//DTD SVG 1.1//EN"
 "http://www.w3.org/Graphics/SVG/1.1/DTD/svg11.dtd">
<!-- Generated by graphviz version 2.50.0 (20211204.2007)
 -->
<!-- Title: ItemsSet Pages: 1 -->
<svg width="163pt" height="463pt"
 viewBox="0.00 0.00 163.00 463.00" xmlns="http://www.w3.org/2000/svg" xmlns:xlink="http://www.w3.org/1999/xlink">
<g id="graph0" class="graph" transform="scale(1 1) rotate(0) translate(4 459)">
<title>ItemsSet</title>
<!-- Node1 -->
<g id="node1" class="node">
<title>Node1</title>
<g id="a_node1"><a xlink:title="项目集">
<polygon fill="#bfbfbf" stroke="black" points="0,-0.5 0,-233.5 155,-233.5 155,-0.5 0,-0.5"/>
<text text-anchor="middle" x="77.5" y="-221.5" font-family="Helvetica,sans-Serif" font-size="10.00">ItemsSet</text>
<polyline fill="none" stroke="black" points="0,-214.5 155,-214.5 "/>
<text text-anchor="middle" x="77.5" y="-202.5" font-family="Helvetica,sans-Serif" font-size="10.00"> </text>
<polyline fill="none" stroke="black" points="0,-195.5 155,-195.5 "/>
<text text-anchor="start" x="8" y="-183.5" font-family="Helvetica,sans-Serif" font-size="10.00">+ ItemsSet(ITEMS i)</text>
<text text-anchor="start" x="8" y="-172.5" font-family="Helvetica,sans-Serif" font-size="10.00">+ set&lt; string &gt; getFirst</text>
<text text-anchor="start" x="8" y="-161.5" font-family="Helvetica,sans-Serif" font-size="10.00">(const string &amp;symbol,</text>
<text text-anchor="start" x="8" y="-150.5" font-family="Helvetica,sans-Serif" font-size="10.00"> const vector&lt; string &gt;</text>
<text text-anchor="start" x="8" y="-139.5" font-family="Helvetica,sans-Serif" font-size="10.00"> &amp;body, int pos, Grammar</text>
<text text-anchor="start" x="8" y="-128.5" font-family="Helvetica,sans-Serif" font-size="10.00"> *g, const string &amp;lookahead)</text>
<text text-anchor="start" x="8" y="-117.5" font-family="Helvetica,sans-Serif" font-size="10.00">+ void closure(Grammar *g)</text>
<text text-anchor="start" x="8" y="-106.5" font-family="Helvetica,sans-Serif" font-size="10.00">+ bool isAllToBeReduced</text>
<text text-anchor="start" x="8" y="-95.5" font-family="Helvetica,sans-Serif" font-size="10.00">() const</text>
<text text-anchor="start" x="8" y="-84.5" font-family="Helvetica,sans-Serif" font-size="10.00">+ bool isToBeReduced</text>
<text text-anchor="start" x="8" y="-73.5" font-family="Helvetica,sans-Serif" font-size="10.00">(int &amp;index) const</text>
<text text-anchor="start" x="8" y="-62.5" font-family="Helvetica,sans-Serif" font-size="10.00">+ const ITEMS &amp; getKernel</text>
<text text-anchor="start" x="8" y="-51.5" font-family="Helvetica,sans-Serif" font-size="10.00">() const</text>
<text text-anchor="start" x="8" y="-40.5" font-family="Helvetica,sans-Serif" font-size="10.00">+ const ITEMS &amp; getNonKernel</text>
<text text-anchor="start" x="8" y="-29.5" font-family="Helvetica,sans-Serif" font-size="10.00">() const</text>
<text text-anchor="start" x="8" y="-18.5" font-family="Helvetica,sans-Serif" font-size="10.00">+ bool operator==(const</text>
<text text-anchor="start" x="8" y="-7.5" font-family="Helvetica,sans-Serif" font-size="10.00"> ItemsSet &amp;other)</text>
</a>
</g>
</g>
<!-- Node2 -->
<g id="node2" class="node">
<title>Node2</title>
<g id="a_node2"><a xlink:title=" ">
<polygon fill="none" stroke="#bfbfbf" points="37,-292.5 37,-349.5 118,-349.5 118,-292.5 37,-292.5"/>
<text text-anchor="middle" x="77.5" y="-337.5" font-family="Helvetica,sans-Serif" font-size="10.00">vector&lt; Item &gt;</text>
<polyline fill="none" stroke="#bfbfbf" points="37,-330.5 118,-330.5 "/>
<text text-anchor="middle" x="77.5" y="-318.5" font-family="Helvetica,sans-Serif" font-size="10.00"> </text>
<polyline fill="none" stroke="#bfbfbf" points="37,-311.5 118,-311.5 "/>
<text text-anchor="middle" x="77.5" y="-299.5" font-family="Helvetica,sans-Serif" font-size="10.00"> </text>
</a>
</g>
</g>
<!-- Node2&#45;&gt;Node1 -->
<g id="edge1" class="edge">
<title>Node2&#45;&gt;Node1</title>
<path fill="none" stroke="#404040" d="M77.5,-292.34C77.5,-279.52 77.5,-263.28 77.5,-245.9"/>
<polygon fill="none" stroke="#404040" points="77.5,-245.71 73.5,-239.71 77.5,-233.71 81.5,-239.71 77.5,-245.71"/>
<text text-anchor="middle" x="103.5" y="-266" font-family="Helvetica,sans-Serif" font-size="10.00"> &#45;kernels</text>
<text text-anchor="middle" x="103.5" y="-255" font-family="Helvetica,sans-Serif" font-size="10.00">&#45;nonKernels</text>
</g>
<!-- Node3 -->
<g id="node3" class="node">
<title>Node3</title>
<g id="a_node3"><a xlink:title=" ">
<polygon fill="none" stroke="#bfbfbf" points="55.5,-397.5 55.5,-454.5 99.5,-454.5 99.5,-397.5 55.5,-397.5"/>
<text text-anchor="middle" x="77.5" y="-442.5" font-family="Helvetica,sans-Serif" font-size="10.00">vector</text>
<polyline fill="none" stroke="#bfbfbf" points="55.5,-435.5 99.5,-435.5 "/>
<text text-anchor="middle" x="77.5" y="-423.5" font-family="Helvetica,sans-Serif" font-size="10.00"> </text>
<polyline fill="none" stroke="#bfbfbf" points="55.5,-416.5 99.5,-416.5 "/>
<text text-anchor="middle" x="77.5" y="-404.5" font-family="Helvetica,sans-Serif" font-size="10.00"> </text>
</a>
</g>
</g>
<!-- Node3&#45;&gt;Node2 -->
<g id="edge2" class="edge">
<title>Node3&#45;&gt;Node2</title>
<path fill="none" stroke="orange" d="M77.5,-387.29C77.5,-374.84 77.5,-361.23 77.5,-349.68"/>
<polygon fill="orange" stroke="orange" points="74,-387.4 77.5,-397.4 81,-387.4 74,-387.4"/>
<text text-anchor="middle" x="98" y="-371" font-family="Helvetica,sans-Serif" font-size="10.00"> &lt; Item &gt;</text>
</g>
</g>
</svg>
