<?xml version="1.0" encoding="UTF-8" standalone="no"?>
<!DOCTYPE svg PUBLIC "-//W3C//DTD SVG 1.1//EN"
 "http://www.w3.org/Graphics/SVG/1.1/DTD/svg11.dtd">
<!-- Generated by graphviz version 2.50.0 (20211204.2007)
 -->
<!-- Title: Grammar::calFirstSet Pages: 1 -->
<svg width="452pt" height="46pt"
 viewBox="0.00 0.00 452.00 46.00" xmlns="http://www.w3.org/2000/svg" xmlns:xlink="http://www.w3.org/1999/xlink">
<g id="graph0" class="graph" transform="scale(1 1) rotate(0) translate(4 42)">
<title>Grammar::calFirstSet</title>
<!-- Node1 -->
<g id="node1" class="node">
<title>Node1</title>
<g id="a_node1"><a xlink:title=" ">
<polygon fill="#bfbfbf" stroke="black" points="334,-0.5 334,-19.5 444,-19.5 444,-0.5 334,-0.5"/>
<text text-anchor="middle" x="389" y="-7.5" font-family="Helvetica,sans-Serif" font-size="10.00">Grammar::calFirstSet</text>
</a>
</g>
</g>
<!-- Node1&#45;&gt;Node1 -->
<g id="edge1" class="edge">
<title>Node1&#45;&gt;Node1</title>
<path fill="none" stroke="midnightblue" d="M417.37,-28.65C416.19,-33.94 406.73,-38 389,-38 361.98,-38 354.18,-28.57 365.57,-19.76"/>
<polygon fill="midnightblue" stroke="midnightblue" points="420.34,-26.8 412.43,-19.76 414.23,-30.2 420.34,-26.8"/>
</g>
<!-- Node2 -->
<g id="node2" class="node">
<title>Node2</title>
<g id="a_node2"><a xlink:href="class_grammar.html#a4a2fdef982ba7524a3f00b343ead73f4" target="_top" xlink:title=" ">
<polygon fill="none" stroke="black" points="176,-0.5 176,-19.5 298,-19.5 298,-0.5 176,-0.5"/>
<text text-anchor="middle" x="237" y="-7.5" font-family="Helvetica,sans-Serif" font-size="10.00">Grammar::getAllFirstSet</text>
</a>
</g>
</g>
<!-- Node1&#45;&gt;Node2 -->
<g id="edge2" class="edge">
<title>Node1&#45;&gt;Node2</title>
<path fill="none" stroke="midnightblue" d="M323.65,-10C315.2,-10 306.56,-10 298.17,-10"/>
<polygon fill="midnightblue" stroke="midnightblue" points="323.85,-13.5 333.85,-10 323.85,-6.5 323.85,-13.5"/>
</g>
<!-- Node3 -->
<g id="node3" class="node">
<title>Node3</title>
<g id="a_node3"><a xlink:href="class_grammar_l_r1.html#a879332bf2fe1ef3da34bb19fdd18d98d" target="_top" xlink:title=" ">
<polygon fill="none" stroke="black" points="0,-0.5 0,-19.5 140,-19.5 140,-0.5 0,-0.5"/>
<text text-anchor="middle" x="70" y="-7.5" font-family="Helvetica,sans-Serif" font-size="10.00">GrammarLR1::GrammarLR1</text>
</a>
</g>
</g>
<!-- Node2&#45;&gt;Node3 -->
<g id="edge3" class="edge">
<title>Node2&#45;&gt;Node3</title>
<path fill="none" stroke="midnightblue" d="M165.76,-10C157.3,-10 148.67,-10 140.23,-10"/>
<polygon fill="midnightblue" stroke="midnightblue" points="165.96,-13.5 175.96,-10 165.96,-6.5 165.96,-13.5"/>
</g>
</g>
</svg>
