<?xml version="1.0" encoding="UTF-8" standalone="no"?>
<!DOCTYPE svg PUBLIC "-//W3C//DTD SVG 1.1//EN"
 "http://www.w3.org/Graphics/SVG/1.1/DTD/svg11.dtd">
<!-- Generated by graphviz version 2.50.0 (20211204.2007)
 -->
<!-- Title: main.cpp Pages: 1 -->
<svg width="725pt" height="84pt"
 viewBox="0.00 0.00 725.00 84.00" xmlns="http://www.w3.org/2000/svg" xmlns:xlink="http://www.w3.org/1999/xlink">
<g id="graph0" class="graph" transform="scale(1 1) rotate(0) translate(4 80)">
<title>main.cpp</title>
<!-- Node1 -->
<g id="node1" class="node">
<title>Node1</title>
<g id="a_node1"><a xlink:title="LR1语法分析器的设计与实现">
<polygon fill="#bfbfbf" stroke="black" points="327,-56.5 327,-75.5 383,-75.5 383,-56.5 327,-56.5"/>
<text text-anchor="middle" x="355" y="-63.5" font-family="Helvetica,sans-Serif" font-size="10.00">main.cpp</text>
</a>
</g>
</g>
<!-- Node2 -->
<g id="node2" class="node">
<title>Node2</title>
<g id="a_node2"><a xlink:title=" ">
<polygon fill="none" stroke="#bfbfbf" points="0,-0.5 0,-19.5 54,-19.5 54,-0.5 0,-0.5"/>
<text text-anchor="middle" x="27" y="-7.5" font-family="Helvetica,sans-Serif" font-size="10.00">iostream</text>
</a>
</g>
</g>
<!-- Node1&#45;&gt;Node2 -->
<g id="edge1" class="edge">
<title>Node1&#45;&gt;Node2</title>
<path fill="none" stroke="midnightblue" d="M326.66,-61.51C275.95,-55.09 166.18,-40.32 63.94,-20.03"/>
<polygon fill="midnightblue" stroke="midnightblue" points="64.56,-16.59 54.07,-18.05 63.18,-23.45 64.56,-16.59"/>
</g>
<!-- Node3 -->
<g id="node3" class="node">
<title>Node3</title>
<g id="a_node3"><a xlink:title=" ">
<polygon fill="none" stroke="#bfbfbf" points="72.5,-0.5 72.5,-19.5 101.5,-19.5 101.5,-0.5 72.5,-0.5"/>
<text text-anchor="middle" x="87" y="-7.5" font-family="Helvetica,sans-Serif" font-size="10.00">list</text>
</a>
</g>
</g>
<!-- Node1&#45;&gt;Node3 -->
<g id="edge2" class="edge">
<title>Node1&#45;&gt;Node3</title>
<path fill="none" stroke="midnightblue" d="M326.83,-61.45C282.76,-55.55 194.82,-42.36 111.46,-19.68"/>
<polygon fill="midnightblue" stroke="midnightblue" points="112.16,-16.24 101.59,-16.94 110.29,-22.98 112.16,-16.24"/>
</g>
<!-- Node4 -->
<g id="node4" class="node">
<title>Node4</title>
<g id="a_node4"><a xlink:title=" ">
<polygon fill="none" stroke="#bfbfbf" points="120,-0.5 120,-19.5 160,-19.5 160,-0.5 120,-0.5"/>
<text text-anchor="middle" x="140" y="-7.5" font-family="Helvetica,sans-Serif" font-size="10.00">utility</text>
</a>
</g>
</g>
<!-- Node1&#45;&gt;Node4 -->
<g id="edge3" class="edge">
<title>Node1&#45;&gt;Node4</title>
<path fill="none" stroke="midnightblue" d="M326.81,-58.77C292.11,-50.97 231.16,-36.86 170.04,-20.16"/>
<polygon fill="midnightblue" stroke="midnightblue" points="170.8,-16.74 160.23,-17.46 168.94,-23.49 170.8,-16.74"/>
</g>
<!-- Node5 -->
<g id="node5" class="node">
<title>Node5</title>
<g id="a_node5"><a xlink:title=" ">
<polygon fill="none" stroke="#bfbfbf" points="178,-0.5 178,-19.5 222,-19.5 222,-0.5 178,-0.5"/>
<text text-anchor="middle" x="200" y="-7.5" font-family="Helvetica,sans-Serif" font-size="10.00">vector</text>
</a>
</g>
</g>
<!-- Node1&#45;&gt;Node5 -->
<g id="edge4" class="edge">
<title>Node1&#45;&gt;Node5</title>
<path fill="none" stroke="midnightblue" d="M330.44,-56.44C303.87,-47.19 261.39,-32.39 232.17,-22.21"/>
<polygon fill="midnightblue" stroke="midnightblue" points="233.03,-18.8 222.43,-18.82 230.72,-25.41 233.03,-18.8"/>
</g>
<!-- Node6 -->
<g id="node6" class="node">
<title>Node6</title>
<g id="a_node6"><a xlink:title=" ">
<polygon fill="none" stroke="#bfbfbf" points="240.5,-0.5 240.5,-19.5 281.5,-19.5 281.5,-0.5 240.5,-0.5"/>
<text text-anchor="middle" x="261" y="-7.5" font-family="Helvetica,sans-Serif" font-size="10.00">stack</text>
</a>
</g>
</g>
<!-- Node1&#45;&gt;Node6 -->
<g id="edge5" class="edge">
<title>Node1&#45;&gt;Node6</title>
<path fill="none" stroke="midnightblue" d="M339.9,-56.32C325.1,-47.82 302.31,-34.73 285.02,-24.8"/>
<polygon fill="midnightblue" stroke="midnightblue" points="286.48,-21.6 276.07,-19.65 282.99,-27.67 286.48,-21.6"/>
</g>
<!-- Node7 -->
<g id="node7" class="node">
<title>Node7</title>
<g id="a_node7"><a xlink:title=" ">
<polygon fill="none" stroke="#bfbfbf" points="300,-0.5 300,-19.5 350,-19.5 350,-0.5 300,-0.5"/>
<text text-anchor="middle" x="325" y="-7.5" font-family="Helvetica,sans-Serif" font-size="10.00">fstream</text>
</a>
</g>
</g>
<!-- Node1&#45;&gt;Node7 -->
<g id="edge6" class="edge">
<title>Node1&#45;&gt;Node7</title>
<path fill="none" stroke="midnightblue" d="M350.05,-56.08C345.9,-48.61 339.85,-37.72 334.73,-28.52"/>
<polygon fill="midnightblue" stroke="midnightblue" points="337.78,-26.79 329.86,-19.75 331.66,-30.19 337.78,-26.79"/>
</g>
<!-- Node8 -->
<g id="node8" class="node">
<title>Node8</title>
<g id="a_node8"><a xlink:title=" ">
<polygon fill="none" stroke="#bfbfbf" points="368.5,-0.5 368.5,-19.5 403.5,-19.5 403.5,-0.5 368.5,-0.5"/>
<text text-anchor="middle" x="386" y="-7.5" font-family="Helvetica,sans-Serif" font-size="10.00">map</text>
</a>
</g>
</g>
<!-- Node1&#45;&gt;Node8 -->
<g id="edge7" class="edge">
<title>Node1&#45;&gt;Node8</title>
<path fill="none" stroke="midnightblue" d="M360.12,-56.08C364.41,-48.61 370.66,-37.72 375.94,-28.52"/>
<polygon fill="midnightblue" stroke="midnightblue" points="379.03,-30.17 380.98,-19.75 372.96,-26.68 379.03,-30.17"/>
</g>
<!-- Node9 -->
<g id="node9" class="node">
<title>Node9</title>
<g id="a_node9"><a xlink:title=" ">
<polygon fill="none" stroke="#bfbfbf" points="422,-0.5 422,-19.5 452,-19.5 452,-0.5 422,-0.5"/>
<text text-anchor="middle" x="437" y="-7.5" font-family="Helvetica,sans-Serif" font-size="10.00">set</text>
</a>
</g>
</g>
<!-- Node1&#45;&gt;Node9 -->
<g id="edge8" class="edge">
<title>Node1&#45;&gt;Node9</title>
<path fill="none" stroke="midnightblue" d="M368.17,-56.32C380.85,-47.98 400.23,-35.21 415.21,-25.35"/>
<polygon fill="midnightblue" stroke="midnightblue" points="417.43,-28.08 423.86,-19.65 413.58,-22.23 417.43,-28.08"/>
</g>
<!-- Node10 -->
<g id="node10" class="node">
<title>Node10</title>
<g id="a_node10"><a xlink:title=" ">
<polygon fill="none" stroke="#bfbfbf" points="470,-0.5 470,-19.5 526,-19.5 526,-0.5 470,-0.5"/>
<text text-anchor="middle" x="498" y="-7.5" font-family="Helvetica,sans-Serif" font-size="10.00">algorithm</text>
</a>
</g>
</g>
<!-- Node1&#45;&gt;Node10 -->
<g id="edge9" class="edge">
<title>Node1&#45;&gt;Node10</title>
<path fill="none" stroke="midnightblue" d="M377.66,-56.44C401.4,-47.48 438.91,-33.31 465.74,-23.18"/>
<polygon fill="midnightblue" stroke="midnightblue" points="467.33,-26.32 475.45,-19.52 464.86,-19.77 467.33,-26.32"/>
</g>
<!-- Node11 -->
<g id="node11" class="node">
<title>Node11</title>
<g id="a_node11"><a xlink:title=" ">
<polygon fill="none" stroke="#bfbfbf" points="544.5,-0.5 544.5,-19.5 587.5,-19.5 587.5,-0.5 544.5,-0.5"/>
<text text-anchor="middle" x="566" y="-7.5" font-family="Helvetica,sans-Serif" font-size="10.00">queue</text>
</a>
</g>
</g>
<!-- Node1&#45;&gt;Node11 -->
<g id="edge10" class="edge">
<title>Node1&#45;&gt;Node11</title>
<path fill="none" stroke="midnightblue" d="M383.15,-58.31C416.77,-50.24 474.96,-36.04 534.41,-20.08"/>
<polygon fill="midnightblue" stroke="midnightblue" points="535.61,-23.38 544.35,-17.4 533.78,-16.62 535.61,-23.38"/>
</g>
<!-- Node12 -->
<g id="node12" class="node">
<title>Node12</title>
<g id="a_node12"><a xlink:title=" ">
<polygon fill="none" stroke="#bfbfbf" points="605.5,-0.5 605.5,-19.5 646.5,-19.5 646.5,-0.5 605.5,-0.5"/>
<text text-anchor="middle" x="626" y="-7.5" font-family="Helvetica,sans-Serif" font-size="10.00">string</text>
</a>
</g>
</g>
<!-- Node1&#45;&gt;Node12 -->
<g id="edge11" class="edge">
<title>Node1&#45;&gt;Node12</title>
<path fill="none" stroke="midnightblue" d="M383.18,-60.86C426.82,-54.21 513.53,-40.06 595.75,-20.09"/>
<polygon fill="midnightblue" stroke="midnightblue" points="596.62,-23.48 605.49,-17.69 594.94,-16.68 596.62,-23.48"/>
</g>
<!-- Node13 -->
<g id="node13" class="node">
<title>Node13</title>
<g id="a_node13"><a xlink:title=" ">
<polygon fill="none" stroke="#bfbfbf" points="665,-0.5 665,-19.5 717,-19.5 717,-0.5 665,-0.5"/>
<text text-anchor="middle" x="691" y="-7.5" font-family="Helvetica,sans-Serif" font-size="10.00">memory</text>
</a>
</g>
</g>
<!-- Node1&#45;&gt;Node13 -->
<g id="edge12" class="edge">
<title>Node1&#45;&gt;Node13</title>
<path fill="none" stroke="midnightblue" d="M383.39,-61.75C435.35,-55.58 549.39,-41.07 654.85,-20.06"/>
<polygon fill="midnightblue" stroke="midnightblue" points="655.58,-23.48 664.69,-18.07 654.2,-16.62 655.58,-23.48"/>
</g>
</g>
</svg>
