<?xml version="1.0" encoding="UTF-8" standalone="no"?>
<!DOCTYPE svg PUBLIC "-//W3C//DTD SVG 1.1//EN"
 "http://www.w3.org/Graphics/SVG/1.1/DTD/svg11.dtd">
<!-- Generated by graphviz version 2.50.0 (20211204.2007)
 -->
<!-- Title: main Pages: 1 -->
<svg width="547pt" height="134pt"
 viewBox="0.00 0.00 547.00 134.00" xmlns="http://www.w3.org/2000/svg" xmlns:xlink="http://www.w3.org/1999/xlink">
<g id="graph0" class="graph" transform="scale(1 1) rotate(0) translate(4 130)">
<title>main</title>
<!-- Node1 -->
<g id="node1" class="node">
<title>Node1</title>
<g id="a_node1"><a xlink:title=" ">
<polygon fill="#bfbfbf" stroke="black" points="0,-62.5 0,-81.5 38,-81.5 38,-62.5 0,-62.5"/>
<text text-anchor="middle" x="19" y="-69.5" font-family="Helvetica,sans-Serif" font-size="10.00">main</text>
</a>
</g>
</g>
<!-- Node2 -->
<g id="node2" class="node">
<title>Node2</title>
<g id="a_node2"><a xlink:href="class_grammar_l_r1.html#acac8dc0eb39eff2bc436397a78d915c0" target="_top" xlink:title=" ">
<polygon fill="none" stroke="black" points="246,-106.5 246,-125.5 354,-125.5 354,-106.5 246,-106.5"/>
<text text-anchor="middle" x="300" y="-113.5" font-family="Helvetica,sans-Serif" font-size="10.00">GrammarLR1::parser</text>
</a>
</g>
</g>
<!-- Node1&#45;&gt;Node2 -->
<g id="edge1" class="edge">
<title>Node1&#45;&gt;Node2</title>
<path fill="none" stroke="midnightblue" d="M38.19,-79.57C48.52,-83.57 61.79,-88.21 74,-91 127.79,-103.28 190.25,-109.61 235.69,-112.82"/>
<polygon fill="midnightblue" stroke="midnightblue" points="235.48,-116.32 245.7,-113.5 235.95,-109.33 235.48,-116.32"/>
</g>
<!-- Node4 -->
<g id="node4" class="node">
<title>Node4</title>
<g id="a_node4"><a xlink:href="class_grammar_l_r1.html#a133db92bfc3ebef29c65f09ac4826d21" target="_top" xlink:title=" ">
<polygon fill="none" stroke="black" points="74,-62.5 74,-81.5 193,-81.5 193,-62.5 74,-62.5"/>
<text text-anchor="middle" x="133.5" y="-69.5" font-family="Helvetica,sans-Serif" font-size="10.00">GrammarLR1::printAST</text>
</a>
</g>
</g>
<!-- Node1&#45;&gt;Node4 -->
<g id="edge3" class="edge">
<title>Node1&#45;&gt;Node4</title>
<path fill="none" stroke="midnightblue" d="M38.08,-72C45.28,-72 54.07,-72 63.36,-72"/>
<polygon fill="midnightblue" stroke="midnightblue" points="63.58,-75.5 73.58,-72 63.58,-68.5 63.58,-75.5"/>
</g>
<!-- Node7 -->
<g id="node7" class="node">
<title>Node7</title>
<g id="a_node7"><a xlink:href="main_8cpp.html#a202ad9417c0bd919700909f73c44732c" target="_top" xlink:title=" ">
<polygon fill="none" stroke="black" points="85,-24.5 85,-43.5 182,-43.5 182,-24.5 85,-24.5"/>
<text text-anchor="middle" x="133.5" y="-31.5" font-family="Helvetica,sans-Serif" font-size="10.00">recognizeSymbols</text>
</a>
</g>
</g>
<!-- Node1&#45;&gt;Node7 -->
<g id="edge8" class="edge">
<title>Node1&#45;&gt;Node7</title>
<path fill="none" stroke="midnightblue" d="M38.46,-65.38C48.87,-61.68 62.14,-57.01 74,-53 80.11,-50.93 86.59,-48.79 92.93,-46.71"/>
<polygon fill="midnightblue" stroke="midnightblue" points="94.27,-49.95 102.69,-43.53 92.1,-43.3 94.27,-49.95"/>
</g>
<!-- Node3 -->
<g id="node3" class="node">
<title>Node3</title>
<g id="a_node3"><a xlink:href="class_grammar.html#a2c8d1fdf2eef2d7ccd987fd9d3a8445f" target="_top" xlink:title=" ">
<polygon fill="none" stroke="black" points="407,-84.5 407,-103.5 539,-103.5 539,-84.5 407,-84.5"/>
<text text-anchor="middle" x="473" y="-91.5" font-family="Helvetica,sans-Serif" font-size="10.00">Grammar::findRulesScope</text>
</a>
</g>
</g>
<!-- Node2&#45;&gt;Node3 -->
<g id="edge2" class="edge">
<title>Node2&#45;&gt;Node3</title>
<path fill="none" stroke="midnightblue" d="M354.17,-109.16C367.58,-107.43 382.24,-105.55 396.52,-103.71"/>
<polygon fill="midnightblue" stroke="midnightblue" points="397.35,-107.13 406.82,-102.39 396.46,-100.19 397.35,-107.13"/>
</g>
<!-- Node5 -->
<g id="node5" class="node">
<title>Node5</title>
<g id="a_node5"><a xlink:href="class_grammar_l_r1.html#ac629f282c577ab96b7b4a915869c26c6" target="_top" xlink:title=" ">
<polygon fill="none" stroke="black" points="229,-57 229,-87 371,-87 371,-57 229,-57"/>
<text text-anchor="start" x="237" y="-75" font-family="Helvetica,sans-Serif" font-size="10.00">GrammarLR1::buildGrammar</text>
<text text-anchor="middle" x="300" y="-64" font-family="Helvetica,sans-Serif" font-size="10.00">AnalysisTree</text>
</a>
</g>
</g>
<!-- Node4&#45;&gt;Node5 -->
<g id="edge4" class="edge">
<title>Node4&#45;&gt;Node5</title>
<path fill="none" stroke="midnightblue" d="M193.42,-72C201.71,-72 210.33,-72 218.93,-72"/>
<polygon fill="midnightblue" stroke="midnightblue" points="218.98,-75.5 228.98,-72 218.98,-68.5 218.98,-75.5"/>
</g>
<!-- Node6 -->
<g id="node6" class="node">
<title>Node6</title>
<g id="a_node6"><a xlink:href="class_grammar_l_r1.html#afced99843bde68d497e7e541402a2662" target="_top" xlink:title=" ">
<polygon fill="none" stroke="black" points="249.5,-0.5 249.5,-19.5 350.5,-19.5 350.5,-0.5 249.5,-0.5"/>
<text text-anchor="middle" x="300" y="-7.5" font-family="Helvetica,sans-Serif" font-size="10.00">GrammarLR1::DFS</text>
</a>
</g>
</g>
<!-- Node4&#45;&gt;Node6 -->
<g id="edge6" class="edge">
<title>Node4&#45;&gt;Node6</title>
<path fill="none" stroke="midnightblue" d="M165.31,-62.45C174.28,-59.54 184.07,-56.26 193,-53 218.29,-43.78 246.51,-32.27 267.47,-23.48"/>
<polygon fill="midnightblue" stroke="midnightblue" points="268.99,-26.64 276.85,-19.53 266.27,-20.19 268.99,-26.64"/>
</g>
<!-- Node5&#45;&gt;Node3 -->
<g id="edge5" class="edge">
<title>Node5&#45;&gt;Node3</title>
<path fill="none" stroke="midnightblue" d="M371.05,-81.01C379.53,-82.1 388.23,-83.22 396.78,-84.32"/>
<polygon fill="midnightblue" stroke="midnightblue" points="396.38,-87.8 406.74,-85.6 397.27,-80.86 396.38,-87.8"/>
</g>
<!-- Node6&#45;&gt;Node6 -->
<g id="edge7" class="edge">
<title>Node6&#45;&gt;Node6</title>
<path fill="none" stroke="midnightblue" d="M274.41,-19.76C261.97,-28.57 270.5,-38 300,-38 319.82,-38 330.18,-33.74 331.06,-28.27"/>
<polygon fill="midnightblue" stroke="midnightblue" points="333.94,-26.27 325.59,-19.76 328.05,-30.06 333.94,-26.27"/>
</g>
</g>
</svg>
