<?xml version="1.0" encoding="UTF-8" standalone="no"?>
<!DOCTYPE svg PUBLIC "-//W3C//DTD SVG 1.1//EN"
 "http://www.w3.org/Graphics/SVG/1.1/DTD/svg11.dtd">
<!-- Generated by graphviz version 2.50.0 (20211204.2007)
 -->
<!-- Title: Item Pages: 1 -->
<svg width="194pt" height="226pt"
 viewBox="0.00 0.00 194.00 226.00" xmlns="http://www.w3.org/2000/svg" xmlns:xlink="http://www.w3.org/1999/xlink">
<g id="graph0" class="graph" transform="scale(1 1) rotate(0) translate(4 222)">
<title>Item</title>
<!-- Node1 -->
<g id="node1" class="node">
<title>Node1</title>
<g id="a_node1"><a xlink:title="不完整的项目集 龙书的说法上分kernel 和 nonkernel T &#45;&gt; .TE T &#45;&gt; T.E">
<polygon fill="#bfbfbf" stroke="black" points="12.5,-0.5 12.5,-101.5 153.5,-101.5 153.5,-0.5 12.5,-0.5"/>
<text text-anchor="middle" x="83" y="-89.5" font-family="Helvetica,sans-Serif" font-size="10.00">Item</text>
<polyline fill="none" stroke="black" points="12.5,-82.5 153.5,-82.5 "/>
<text text-anchor="middle" x="83" y="-70.5" font-family="Helvetica,sans-Serif" font-size="10.00"> </text>
<polyline fill="none" stroke="black" points="12.5,-63.5 153.5,-63.5 "/>
<text text-anchor="start" x="20.5" y="-51.5" font-family="Helvetica,sans-Serif" font-size="10.00">+ Item(string sym, int</text>
<text text-anchor="start" x="20.5" y="-40.5" font-family="Helvetica,sans-Serif" font-size="10.00"> position, vector&lt; string</text>
<text text-anchor="start" x="20.5" y="-29.5" font-family="Helvetica,sans-Serif" font-size="10.00"> &gt; b, string t_lookahead=&quot;#&quot;)</text>
<text text-anchor="start" x="20.5" y="-18.5" font-family="Helvetica,sans-Serif" font-size="10.00">+ bool operator==(const</text>
<text text-anchor="start" x="20.5" y="-7.5" font-family="Helvetica,sans-Serif" font-size="10.00"> Item &amp;other) const</text>
</a>
</g>
</g>
<!-- Node2 -->
<g id="node2" class="node">
<title>Node2</title>
<g id="a_node2"><a xlink:title=" ">
<polygon fill="none" stroke="#bfbfbf" points="0,-160.5 0,-217.5 50,-217.5 50,-160.5 0,-160.5"/>
<text text-anchor="middle" x="25" y="-205.5" font-family="Helvetica,sans-Serif" font-size="10.00">vector&lt;</text>
<polyline fill="none" stroke="#bfbfbf" points="0,-198.5 50,-198.5 "/>
<text text-anchor="middle" x="25" y="-186.5" font-family="Helvetica,sans-Serif" font-size="10.00"> </text>
<polyline fill="none" stroke="#bfbfbf" points="0,-179.5 50,-179.5 "/>
<text text-anchor="middle" x="25" y="-167.5" font-family="Helvetica,sans-Serif" font-size="10.00"> </text>
</a>
</g>
</g>
<!-- Node2&#45;&gt;Node1 -->
<g id="edge1" class="edge">
<title>Node2&#45;&gt;Node1</title>
<path fill="none" stroke="#404040" d="M33.37,-160.19C37.38,-147.74 42.51,-132.97 48,-120 49.03,-117.57 50.11,-115.1 51.23,-112.62"/>
<polygon fill="none" stroke="#404040" points="51.24,-112.6 50.17,-105.47 56.33,-101.73 57.41,-108.86 51.24,-112.6"/>
<text text-anchor="middle" x="63.5" y="-128.5" font-family="Helvetica,sans-Serif" font-size="10.00"> +body</text>
</g>
<!-- Node3 -->
<g id="node3" class="node">
<title>Node3</title>
<g id="a_node3"><a xlink:title=" ">
<polygon fill="none" stroke="#bfbfbf" points="68.5,-160.5 68.5,-217.5 97.5,-217.5 97.5,-160.5 68.5,-160.5"/>
<text text-anchor="middle" x="83" y="-205.5" font-family="Helvetica,sans-Serif" font-size="10.00">int</text>
<polyline fill="none" stroke="#bfbfbf" points="68.5,-198.5 97.5,-198.5 "/>
<text text-anchor="middle" x="83" y="-186.5" font-family="Helvetica,sans-Serif" font-size="10.00"> </text>
<polyline fill="none" stroke="#bfbfbf" points="68.5,-179.5 97.5,-179.5 "/>
<text text-anchor="middle" x="83" y="-167.5" font-family="Helvetica,sans-Serif" font-size="10.00"> </text>
</a>
</g>
</g>
<!-- Node3&#45;&gt;Node1 -->
<g id="edge2" class="edge">
<title>Node3&#45;&gt;Node1</title>
<path fill="none" stroke="#404040" d="M83,-160.48C83,-147.06 83,-130.33 83,-114.06"/>
<polygon fill="none" stroke="#404040" points="83,-113.76 79,-107.76 83,-101.76 87,-107.76 83,-113.76"/>
<text text-anchor="middle" x="103" y="-128.5" font-family="Helvetica,sans-Serif" font-size="10.00"> +dotPos</text>
</g>
<!-- Node4 -->
<g id="node4" class="node">
<title>Node4</title>
<g id="a_node4"><a xlink:title=" ">
<polygon fill="none" stroke="#bfbfbf" points="125.5,-160.5 125.5,-217.5 166.5,-217.5 166.5,-160.5 125.5,-160.5"/>
<text text-anchor="middle" x="146" y="-205.5" font-family="Helvetica,sans-Serif" font-size="10.00">string</text>
<polyline fill="none" stroke="#bfbfbf" points="125.5,-198.5 166.5,-198.5 "/>
<text text-anchor="middle" x="146" y="-186.5" font-family="Helvetica,sans-Serif" font-size="10.00"> </text>
<polyline fill="none" stroke="#bfbfbf" points="125.5,-179.5 166.5,-179.5 "/>
<text text-anchor="middle" x="146" y="-167.5" font-family="Helvetica,sans-Serif" font-size="10.00"> </text>
</a>
</g>
</g>
<!-- Node4&#45;&gt;Node1 -->
<g id="edge3" class="edge">
<title>Node4&#45;&gt;Node1</title>
<path fill="none" stroke="#404040" d="M138.62,-160.32C134.87,-147.76 129.87,-132.87 124,-120 122.88,-117.55 121.7,-115.09 120.47,-112.61"/>
<polygon fill="none" stroke="#404040" points="120.37,-112.42 114.03,-108.97 114.78,-101.8 121.11,-105.25 120.37,-112.42"/>
<text text-anchor="middle" x="159" y="-134" font-family="Helvetica,sans-Serif" font-size="10.00"> +lookahead</text>
<text text-anchor="middle" x="159" y="-123" font-family="Helvetica,sans-Serif" font-size="10.00">+symbol</text>
</g>
</g>
</svg>
